<?xml version="1.0" encoding="UTF-8"?>
<!DOCTYPE svg PUBLIC "-//W3C//DTD SVG 1.1//EN" "http://www.w3.org/Graphics/SVG/1.1/DTD/svg11.dtd">
<svg version="1.2" width="148.34mm" height="29.21mm" viewBox="0 0 14834 2921" preserveAspectRatio="xMidYMid" fill-rule="evenodd" stroke-width="28.222" stroke-linejoin="round" xmlns="http://www.w3.org/2000/svg" xmlns:ooo="http://xml.openoffice.org/svg/export" xmlns:xlink="http://www.w3.org/1999/xlink" xmlns:presentation="http://sun.com/xmlns/staroffice/presentation" xmlns:smil="http://www.w3.org/2001/SMIL20/" xmlns:anim="urn:oasis:names:tc:opendocument:xmlns:animation:1.0" xmlns:svg="urn:oasis:names:tc:opendocument:xmlns:svg-compatible:1.0" xml:space="preserve">
 <defs class="ClipPathGroup">
  <clipPath id="presentation_clip_path" clipPathUnits="userSpaceOnUse">
   <rect x="0" y="0" width="14834" height="2921"/>
  </clipPath>
  <clipPath id="presentation_clip_path_shrink" clipPathUnits="userSpaceOnUse">
   <rect x="14" y="2" width="14805" height="2916"/>
  </clipPath>
 </defs>
 <defs class="TextShapeIndex">
  <g ooo:slide="id1" ooo:id-list="id3 id4"/>
 </defs>
 <defs class="EmbeddedBulletChars">
  <g id="bullet-char-template-57356" transform="scale(0.00048828125,-0.00048828125)">
   <path d="M 580,1141 L 1163,571 580,0 -4,571 580,1141 Z"/>
  </g>
  <g id="bullet-char-template-57354" transform="scale(0.00048828125,-0.00048828125)">
   <path d="M 8,1128 L 1137,1128 1137,0 8,0 8,1128 Z"/>
  </g>
  <g id="bullet-char-template-10146" transform="scale(0.00048828125,-0.00048828125)">
   <path d="M 174,0 L 602,739 174,1481 1456,739 174,0 Z M 1358,739 L 309,1346 659,739 1358,739 Z"/>
  </g>
  <g id="bullet-char-template-10132" transform="scale(0.00048828125,-0.00048828125)">
   <path d="M 2015,739 L 1276,0 717,0 1260,543 174,543 174,936 1260,936 717,1481 1274,1481 2015,739 Z"/>
  </g>
  <g id="bullet-char-template-10007" transform="scale(0.00048828125,-0.00048828125)">
   <path d="M 0,-2 C -7,14 -16,27 -25,37 L 356,567 C 262,823 215,952 215,954 215,979 228,992 255,992 264,992 276,990 289,987 310,991 331,999 354,1012 L 381,999 492,748 772,1049 836,1024 860,1049 C 881,1039 901,1025 922,1006 886,937 835,863 770,784 769,783 710,716 594,584 L 774,223 C 774,196 753,168 711,139 L 727,119 C 717,90 699,76 672,76 641,76 570,178 457,381 L 164,-76 C 142,-110 111,-127 72,-127 30,-127 9,-110 8,-76 1,-67 -2,-52 -2,-32 -2,-23 -1,-13 0,-2 Z"/>
  </g>
  <g id="bullet-char-template-10004" transform="scale(0.00048828125,-0.00048828125)">
   <path d="M 285,-33 C 182,-33 111,30 74,156 52,228 41,333 41,471 41,549 55,616 82,672 116,743 169,778 240,778 293,778 328,747 346,684 L 369,508 C 377,444 397,411 428,410 L 1163,1116 C 1174,1127 1196,1133 1229,1133 1271,1133 1292,1118 1292,1087 L 1292,965 C 1292,929 1282,901 1262,881 L 442,47 C 390,-6 338,-33 285,-33 Z"/>
  </g>
  <g id="bullet-char-template-9679" transform="scale(0.00048828125,-0.00048828125)">
   <path d="M 813,0 C 632,0 489,54 383,161 276,268 223,411 223,592 223,773 276,916 383,1023 489,1130 632,1184 813,1184 992,1184 1136,1130 1245,1023 1353,916 1407,772 1407,592 1407,412 1353,268 1245,161 1136,54 992,0 813,0 Z"/>
  </g>
  <g id="bullet-char-template-8226" transform="scale(0.00048828125,-0.00048828125)">
   <path d="M 346,457 C 273,457 209,483 155,535 101,586 74,649 74,723 74,796 101,859 155,911 209,963 273,989 346,989 419,989 480,963 531,910 582,859 608,796 608,723 608,648 583,586 532,535 482,483 420,457 346,457 Z"/>
  </g>
  <g id="bullet-char-template-8211" transform="scale(0.00048828125,-0.00048828125)">
   <path d="M -4,459 L 1135,459 1135,606 -4,606 -4,459 Z"/>
  </g>
  <g id="bullet-char-template-61548" transform="scale(0.00048828125,-0.00048828125)">
   <path d="M 173,740 C 173,903 231,1043 346,1159 462,1274 601,1332 765,1332 928,1332 1067,1274 1183,1159 1299,1043 1357,903 1357,740 1357,577 1299,437 1183,322 1067,206 928,148 765,148 601,148 462,206 346,322 231,437 173,577 173,740 Z"/>
  </g>
 </defs>
 <g>
  <g id="id2" class="Master_Slide">
   <g id="bg-id2" class="Background"/>
   <g id="bo-id2" class="BackgroundObjects"/>
  </g>
 </g>
 <g class="SlideGroup">
  <g>
   <g id="container-id1">
    <g id="id1" class="Slide" clip-path="url(#presentation_clip_path)">
     <g class="Page">
      <g class="Graphic">
       <g id="id3">
        <rect class="BoundingBox" stroke="none" fill="none" x="174" y="442" width="11409" height="2139"/>
        <defs>
         <clipPath id="clip_path_1" clipPathUnits="userSpaceOnUse">
          <path d="M 174,442 L 11582,442 11582,2580 174,2580 174,442 Z"/>
         </clipPath>
        </defs>
        <g clip-path="url(#clip_path_1)">
         <path fill="rgb(255,255,255)" stroke="none" d="M 1042,2550 L 310,2550 310,2550 C 310,2550 309,2550 309,2550 290,2550 271,2546 254,2539 L 254,2539 C 250,2537 246,2535 241,2532 231,2526 222,2519 213,2511 187,2484 174,2452 174,2414 L 174,581 C 174,543 187,510 213,483 240,456 272,442 310,442 L 1024,442 C 1172,442 1296,464 1396,509 L 1396,509 C 1414,517 1431,525 1448,535 1476,552 1504,571 1529,593 L 1529,593 C 1571,629 1607,672 1634,720 1676,792 1698,872 1700,955 L 1700,955 C 1701,966 1701,977 1701,989 1701,1113 1671,1214 1611,1289 1550,1365 1482,1419 1405,1454 1478,1476 1546,1509 1609,1553 1673,1598 1724,1653 1762,1719 L 1762,1719 C 1786,1762 1802,1808 1811,1855 L 1811,1855 C 1816,1888 1819,1922 1819,1955 1819,1956 1819,1957 1819,1958 1819,2075 1794,2178 1742,2267 L 1742,2267 C 1707,2328 1659,2379 1601,2418 L 1601,2418 C 1588,2426 1575,2434 1562,2442 1540,2455 1517,2466 1494,2476 1411,2512 1309,2534 1188,2544 L 1188,2544 C 1140,2548 1093,2550 1046,2550 1044,2550 1043,2550 1042,2550 L 1042,2550 Z M 7717,2550 L 6985,2550 6985,2550 C 6984,2550 6984,2550 6983,2550 6965,2550 6946,2546 6929,2539 L 6929,2539 C 6925,2537 6920,2535 6916,2532 6906,2526 6897,2519 6888,2511 6862,2484 6849,2452 6849,2414 L 6849,581 C 6849,543 6862,510 6888,483 6914,456 6947,442 6985,442 L 7699,442 C 7846,442 7970,464 8071,509 L 8071,509 C 8088,517 8106,525 8122,535 8151,552 8179,571 8204,593 L 8204,593 C 8246,629 8281,672 8309,720 8350,792 8373,872 8375,955 L 8375,955 C 8376,966 8376,977 8376,989 8376,1113 8346,1214 8285,1289 8225,1365 8156,1419 8080,1454 8152,1476 8220,1509 8284,1553 8347,1598 8398,1653 8437,1719 L 8437,1719 C 8461,1762 8477,1808 8485,1855 L 8485,1855 C 8491,1888 8494,1922 8494,1955 8494,1956 8494,1957 8494,1958 8494,2075 8468,2178 8417,2267 L 8417,2267 C 8382,2328 8333,2379 8275,2418 L 8275,2418 C 8263,2426 8250,2434 8237,2442 8215,2455 8192,2466 8169,2476 8086,2512 7984,2534 7862,2544 L 7862,2544 C 7815,2548 7768,2550 7720,2550 7719,2550 7718,2550 7717,2550 L 7717,2550 Z M 3425,1876 L 2400,1876 C 2416,2011 2468,2119 2554,2201 L 2554,2201 C 2577,2222 2602,2240 2629,2256 2657,2272 2687,2285 2719,2295 2761,2308 2807,2316 2858,2320 L 2858,2320 C 2881,2322 2905,2323 2928,2323 2928,2323 2929,2323 2929,2323 L 2929,2323 C 2930,2323 2931,2323 2932,2323 2963,2323 2994,2322 3025,2320 3057,2317 3086,2313 3113,2308 L 3113,2308 C 3128,2305 3144,2302 3159,2298 3222,2281 3281,2258 3338,2230 L 3338,2230 C 3350,2223 3364,2220 3378,2218 L 3378,2218 C 3383,2218 3387,2218 3392,2218 3392,2218 3392,2218 3392,2218 3424,2218 3452,2229 3477,2251 L 3477,2251 C 3485,2258 3493,2267 3498,2277 3508,2293 3513,2312 3513,2330 L 3513,2330 C 3513,2332 3513,2334 3513,2335 3513,2335 3513,2335 3513,2335 3513,2360 3505,2381 3490,2400 3475,2419 3456,2435 3434,2447 L 3434,2447 C 3370,2484 3303,2514 3233,2537 L 3233,2537 C 3228,2539 3223,2541 3218,2542 L 3218,2542 C 3189,2551 3159,2559 3129,2564 3066,2575 2991,2580 2906,2580 L 2906,2580 C 2905,2580 2905,2580 2905,2580 2905,2580 2905,2580 2905,2580 2659,2580 2467,2510 2329,2370 2199,2238 2130,2056 2122,1823 L 2122,1823 C 2122,1809 2122,1794 2122,1780 2122,1780 2122,1780 2122,1780 2122,1643 2147,1514 2197,1392 2248,1270 2326,1171 2433,1094 2534,1022 2662,984 2817,980 L 2817,980 C 2826,980 2835,980 2844,980 2844,980 2844,980 2845,980 L 2845,980 C 2846,980 2848,980 2850,980 2910,980 2970,986 3028,999 L 3028,999 C 3090,1012 3150,1035 3206,1067 3217,1073 3227,1080 3238,1087 3345,1158 3426,1251 3481,1366 L 3481,1366 C 3535,1479 3564,1603 3564,1728 L 3564,1728 C 3564,1732 3564,1736 3564,1740 3564,1779 3552,1811 3527,1837 L 3527,1837 C 3518,1846 3509,1853 3499,1859 3485,1867 3470,1872 3454,1874 L 3454,1874 C 3444,1876 3435,1876 3426,1876 3426,1876 3425,1876 3425,1876 L 3425,1876 Z M 5137,1876 L 4112,1876 C 4128,2011 4179,2119 4266,2201 L 4266,2201 C 4289,2222 4314,2240 4341,2256 4369,2272 4399,2285 4431,2295 4473,2308 4519,2316 4570,2320 L 4570,2320 C 4593,2322 4616,2323 4640,2323 4640,2323 4641,2323 4641,2323 L 4641,2323 C 4642,2323 4643,2323 4644,2323 4675,2323 4706,2322 4737,2320 4768,2317 4798,2313 4825,2308 L 4825,2308 C 4840,2305 4856,2302 4871,2298 4933,2281 4993,2258 5049,2230 L 5049,2230 C 5062,2223 5076,2220 5090,2218 L 5090,2218 C 5094,2218 5099,2218 5104,2218 5104,2218 5104,2218 5104,2218 5136,2218 5164,2229 5188,2251 L 5188,2251 C 5197,2258 5204,2267 5210,2277 5219,2293 5224,2312 5225,2330 L 5225,2330 C 5225,2332 5225,2334 5225,2335 5225,2335 5225,2335 5225,2335 5225,2360 5217,2381 5202,2400 5187,2419 5168,2435 5146,2447 L 5146,2447 C 5082,2484 5014,2514 4944,2537 L 4944,2537 C 4940,2539 4935,2541 4930,2542 L 4930,2542 C 4901,2551 4871,2559 4840,2564 4777,2575 4703,2580 4617,2580 L 4617,2580 C 4617,2580 4617,2580 4617,2580 4617,2580 4617,2580 4617,2580 4371,2580 4179,2510 4041,2370 3910,2238 3842,2056 3834,1823 L 3834,1823 C 3834,1809 3834,1794 3834,1780 3834,1780 3834,1780 3834,1780 3834,1643 3859,1514 3909,1392 3960,1270 4038,1171 4145,1094 4246,1022 4374,984 4529,980 L 4529,980 C 4538,980 4547,980 4556,980 4556,980 4556,980 4556,980 L 4556,980 C 4558,980 4560,980 4562,980 4622,980 4681,986 4740,999 L 4740,999 C 4802,1012 4862,1035 4917,1067 4928,1073 4939,1080 4950,1087 5056,1158 5138,1251 5193,1366 L 5193,1366 C 5247,1479 5275,1603 5276,1728 L 5276,1728 C 5276,1732 5276,1736 5276,1740 5276,1779 5264,1811 5238,1837 L 5238,1837 C 5230,1846 5221,1853 5211,1859 5197,1867 5181,1872 5165,1874 L 5165,1874 C 5156,1876 5147,1876 5138,1876 5137,1876 5137,1876 5137,1876 L 5137,1876 Z M 5730,2181 L 5730,1245 5515,1245 5515,1245 C 5515,1245 5514,1245 5514,1245 5507,1245 5499,1244 5492,1242 5475,1238 5465,1226 5460,1209 L 5460,1209 C 5458,1203 5458,1196 5458,1189 5458,1189 5458,1188 5458,1188 L 5458,1188 C 5458,1188 5458,1188 5458,1188 5458,1177 5460,1167 5466,1158 5469,1153 5472,1148 5476,1144 L 5476,1144 C 5479,1141 5482,1139 5485,1137 L 5896,735 5896,735 C 5897,734 5899,732 5900,731 5904,728 5909,723 5916,718 L 5916,718 C 5918,717 5920,716 5922,714 5929,710 5938,708 5947,708 5947,708 5947,708 5947,708 L 5947,708 C 5947,708 5947,708 5947,708 5947,708 5947,708 5948,708 L 5948,708 C 5948,708 5948,708 5948,708 5958,708 5967,710 5975,715 5979,717 5983,720 5987,724 L 5987,724 C 5987,725 5988,725 5988,726 5999,738 6005,752 6005,768 L 6005,1010 6347,1010 6347,1010 C 6347,1010 6348,1010 6348,1010 6362,1010 6375,1012 6388,1016 L 6388,1016 C 6395,1018 6402,1021 6408,1025 6417,1030 6425,1036 6431,1043 L 6431,1043 C 6438,1050 6445,1058 6449,1066 6458,1082 6463,1099 6464,1116 L 6464,1116 C 6465,1120 6465,1124 6465,1127 6465,1127 6465,1127 6465,1127 6465,1160 6454,1187 6431,1211 L 6431,1211 C 6424,1218 6416,1225 6406,1230 6390,1240 6371,1245 6352,1245 L 6352,1245 C 6350,1245 6349,1245 6347,1245 L 6005,1245 6005,2157 6005,2157 C 6005,2158 6005,2158 6005,2159 6005,2173 6006,2187 6008,2201 6011,2233 6020,2259 6033,2277 L 6033,2277 C 6035,2280 6036,2282 6038,2284 L 6038,2284 C 6048,2296 6061,2307 6074,2315 L 6074,2315 C 6075,2315 6075,2315 6076,2316 6089,2323 6103,2328 6118,2331 L 6118,2331 C 6131,2333 6144,2335 6157,2336 6169,2337 6181,2338 6191,2338 L 6191,2338 C 6195,2338 6198,2338 6202,2338 6250,2338 6286,2334 6309,2325 6332,2316 6357,2311 6383,2311 L 6383,2311 C 6383,2311 6383,2311 6383,2311 6402,2311 6421,2316 6438,2326 6444,2330 6451,2334 6456,2339 L 6456,2339 C 6457,2340 6458,2341 6459,2341 L 6459,2341 C 6466,2348 6473,2357 6478,2366 6487,2380 6491,2397 6492,2414 L 6492,2414 C 6492,2416 6492,2418 6492,2420 L 6492,2420 C 6492,2421 6492,2422 6492,2422 6492,2441 6487,2460 6478,2476 6471,2488 6462,2499 6451,2507 L 6451,2507 C 6444,2513 6437,2517 6429,2522 6427,2523 6425,2524 6422,2526 L 6422,2526 C 6390,2540 6356,2552 6321,2561 L 6321,2561 C 6316,2562 6311,2564 6306,2565 L 6306,2565 C 6278,2572 6249,2576 6220,2578 L 6220,2578 C 6204,2579 6188,2580 6172,2580 6172,2580 6172,2580 6171,2580 L 6171,2580 C 6156,2580 6140,2579 6124,2578 6099,2577 6072,2574 6043,2569 L 6043,2569 C 5999,2563 5956,2550 5915,2530 L 5915,2530 C 5909,2527 5904,2524 5898,2521 L 5898,2521 C 5895,2520 5893,2518 5891,2517 5861,2500 5836,2479 5814,2453 L 5814,2453 C 5801,2437 5789,2420 5778,2402 5754,2360 5738,2308 5732,2244 L 5732,2244 C 5731,2224 5730,2203 5730,2183 5730,2182 5730,2182 5730,2181 L 5730,2181 Z M 10820,2181 L 10820,1245 10605,1245 10605,1245 C 10605,1245 10604,1245 10604,1245 10597,1245 10589,1244 10582,1242 10565,1238 10555,1226 10550,1209 L 10550,1209 C 10548,1203 10548,1196 10548,1189 10548,1189 10548,1188 10548,1188 L 10548,1188 C 10548,1188 10548,1188 10548,1188 10548,1177 10550,1167 10556,1158 10559,1153 10562,1148 10566,1144 L 10566,1144 C 10569,1141 10572,1139 10575,1137 L 10986,735 10986,735 C 10987,734 10989,732 10990,731 10994,728 10999,723 11006,718 L 11006,718 C 11008,717 11010,716 11012,714 11019,710 11028,708 11037,708 11037,708 11037,708 11037,708 L 11037,708 C 11037,708 11037,708 11037,708 11037,708 11037,708 11038,708 L 11038,708 C 11038,708 11038,708 11038,708 11048,708 11057,710 11065,715 11069,717 11073,720 11077,724 L 11077,724 C 11077,725 11078,725 11078,726 11090,738 11095,752 11095,768 L 11095,1010 11437,1010 11437,1010 C 11437,1010 11438,1010 11438,1010 11452,1010 11465,1012 11478,1016 L 11478,1016 C 11485,1018 11492,1021 11498,1025 11507,1030 11515,1036 11521,1043 L 11521,1043 C 11528,1050 11535,1058 11539,1066 11548,1082 11553,1099 11554,1116 L 11554,1116 C 11555,1120 11555,1124 11555,1127 11555,1127 11555,1127 11555,1127 11555,1160 11544,1187 11521,1211 L 11521,1211 C 11514,1218 11506,1225 11496,1230 11480,1240 11461,1245 11442,1245 L 11442,1245 C 11440,1245 11439,1245 11437,1245 L 11095,1245 11095,2157 11095,2157 C 11095,2158 11095,2158 11095,2159 11095,2173 11096,2187 11098,2201 11101,2233 11110,2259 11123,2277 L 11123,2277 C 11125,2280 11126,2282 11128,2284 L 11128,2284 C 11139,2296 11151,2307 11164,2315 L 11164,2315 C 11165,2315 11165,2315 11166,2316 11179,2323 11193,2328 11208,2331 L 11208,2331 C 11221,2333 11234,2335 11247,2336 11259,2337 11271,2338 11281,2338 L 11281,2338 C 11285,2338 11288,2338 11292,2338 11340,2338 11376,2334 11399,2325 11422,2316 11447,2311 11473,2311 L 11473,2311 C 11473,2311 11473,2311 11473,2311 11492,2311 11511,2316 11528,2326 11534,2330 11541,2334 11546,2339 L 11546,2339 C 11547,2340 11548,2341 11549,2341 L 11549,2341 C 11557,2348 11563,2357 11568,2366 11577,2380 11581,2397 11582,2414 L 11582,2414 C 11582,2416 11582,2418 11582,2420 L 11582,2420 C 11582,2421 11582,2422 11582,2422 11582,2441 11577,2460 11568,2476 11561,2488 11552,2499 11541,2507 L 11541,2507 C 11534,2513 11527,2517 11519,2522 11517,2523 11515,2524 11512,2526 L 11512,2526 C 11480,2540 11446,2552 11411,2561 L 11411,2561 C 11406,2562 11401,2564 11396,2565 L 11396,2565 C 11368,2572 11339,2576 11310,2578 L 11310,2578 C 11294,2579 11278,2580 11262,2580 11262,2580 11262,2580 11261,2580 L 11261,2580 C 11246,2580 11230,2579 11214,2578 11189,2577 11162,2574 11133,2569 L 11133,2569 C 11089,2563 11046,2550 11005,2530 L 11005,2530 C 10999,2527 10994,2524 10988,2521 L 10988,2521 C 10985,2520 10983,2518 10981,2517 10951,2500 10926,2479 10904,2453 L 10904,2453 C 10891,2437 10879,2420 10868,2402 10844,2360 10828,2308 10823,2244 L 10823,2244 C 10821,2224 10820,2203 10820,2183 10820,2182 10820,2182 10820,2181 L 10820,2181 Z M 9352,2555 L 9352,2555 C 9422,2571 9493,2580 9565,2580 9567,2580 9569,2580 9571,2580 L 9571,2580 C 9572,2580 9572,2580 9573,2580 9619,2580 9665,2577 9711,2570 L 9711,2570 C 9805,2557 9895,2526 9978,2479 10093,2411 10184,2318 10248,2198 L 10248,2198 C 10282,2135 10307,2067 10322,1997 L 10322,1997 C 10337,1928 10345,1857 10345,1785 10345,1784 10345,1782 10345,1780 L 10345,1780 C 10345,1779 10345,1778 10345,1777 10345,1725 10341,1674 10334,1623 L 10334,1623 C 10320,1531 10292,1443 10248,1362 10184,1242 10093,1148 9978,1081 L 9978,1081 C 9977,1081 9977,1080 9977,1080 9916,1045 9851,1019 9783,1003 L 9783,1003 C 9715,987 9646,980 9576,980 9575,980 9573,980 9571,980 L 9571,980 C 9570,980 9569,980 9568,980 9525,980 9481,983 9438,988 L 9438,988 C 9341,1001 9247,1032 9162,1081 9046,1148 8955,1242 8892,1362 L 8892,1362 C 8858,1425 8834,1492 8819,1562 L 8819,1562 C 8804,1632 8797,1703 8797,1774 8797,1776 8797,1778 8797,1780 L 8797,1780 C 8797,1781 8797,1782 8797,1783 8797,1835 8800,1886 8808,1938 L 8808,1938 C 8821,2029 8849,2117 8892,2198 8955,2318 9046,2411 9162,2479 L 9162,2479 C 9222,2513 9286,2538 9352,2555 L 9352,2555 Z M 9571,2329 C 9647,2329 9724,2311 9801,2275 L 9801,2275 C 9811,2270 9820,2265 9830,2260 9876,2233 9917,2198 9951,2156 L 9951,2156 C 9966,2138 9980,2118 9993,2098 L 9993,2098 C 9995,2095 9997,2091 10000,2087 10021,2050 10037,2010 10048,1968 10062,1912 10070,1848 10070,1777 10070,1644 10044,1537 9993,1457 9941,1376 9877,1318 9801,1283 L 9801,1283 C 9755,1262 9707,1246 9657,1238 L 9657,1238 C 9628,1233 9600,1230 9571,1230 L 9571,1230 C 9510,1230 9451,1241 9394,1261 L 9394,1261 C 9375,1268 9357,1275 9339,1283 L 9339,1283 C 9327,1288 9316,1294 9304,1301 9255,1329 9213,1367 9178,1412 L 9178,1412 C 9167,1426 9157,1441 9147,1457 L 9147,1457 C 9145,1460 9143,1463 9141,1467 9120,1503 9105,1542 9094,1582 9079,1639 9072,1704 9072,1777 L 9072,1777 C 9072,1778 9072,1780 9072,1781 9072,1822 9075,1864 9081,1905 9092,1980 9114,2045 9147,2098 L 9147,2098 C 9172,2138 9201,2174 9236,2206 L 9236,2206 C 9258,2226 9282,2244 9308,2258 9318,2264 9329,2270 9339,2275 L 9339,2275 C 9383,2295 9428,2311 9475,2320 L 9475,2320 C 9507,2326 9539,2329 9571,2329 L 9571,2329 Z M 449,1602 L 449,2293 1015,2293 1015,2293 C 1016,2293 1018,2293 1019,2293 1058,2293 1097,2292 1136,2289 1212,2283 1276,2271 1327,2254 L 1327,2254 C 1331,2252 1336,2251 1340,2249 L 1340,2249 C 1363,2241 1386,2230 1408,2217 1409,2217 1411,2216 1412,2215 1438,2199 1460,2182 1478,2162 L 1478,2162 C 1488,2151 1497,2140 1505,2127 L 1505,2127 C 1506,2125 1507,2123 1509,2120 1532,2079 1547,2034 1551,1987 L 1551,1987 C 1552,1973 1553,1960 1553,1946 1553,1946 1553,1946 1553,1946 L 1553,1946 C 1553,1944 1553,1943 1553,1942 1553,1907 1548,1872 1538,1839 L 1538,1839 C 1532,1819 1524,1801 1514,1783 1490,1742 1456,1708 1416,1685 1416,1685 1416,1685 1416,1685 L 1416,1685 C 1414,1684 1413,1683 1412,1682 1376,1662 1338,1646 1298,1635 1221,1613 1128,1602 1018,1602 L 449,1602 449,1602 Z M 7124,1602 L 7124,2293 7690,2293 7690,2293 C 7691,2293 7692,2293 7694,2293 7733,2293 7771,2292 7810,2289 7887,2283 7950,2271 8002,2254 L 8002,2254 C 8006,2252 8010,2251 8015,2249 L 8015,2249 C 8038,2241 8061,2230 8083,2217 8084,2217 8085,2216 8087,2215 8113,2199 8135,2182 8153,2162 L 8153,2162 C 8163,2151 8172,2140 8180,2127 L 8180,2127 C 8181,2125 8182,2123 8183,2120 8207,2079 8222,2034 8226,1987 L 8226,1987 C 8227,1973 8228,1960 8228,1946 8228,1946 8228,1946 8228,1946 L 8228,1946 C 8228,1944 8228,1943 8228,1942 8228,1907 8223,1872 8213,1839 L 8213,1839 C 8207,1819 8199,1801 8189,1783 8165,1742 8131,1708 8090,1685 8090,1685 8090,1685 8090,1685 L 8090,1685 C 8089,1684 8088,1683 8087,1682 8051,1662 8013,1646 7973,1635 7896,1613 7802,1602 7693,1602 L 7124,1602 7124,1602 Z M 449,699 L 449,1354 951,1354 951,1354 C 953,1354 954,1354 955,1354 991,1354 1026,1353 1062,1350 1135,1343 1195,1330 1243,1311 L 1243,1311 C 1244,1310 1246,1309 1248,1309 1307,1283 1351,1250 1381,1209 L 1381,1209 C 1385,1203 1389,1197 1393,1190 1394,1189 1395,1187 1396,1185 1424,1133 1438,1074 1438,1010 L 1438,1010 C 1438,1008 1438,1007 1438,1006 1438,966 1430,927 1414,891 1396,852 1368,818 1331,789 L 1331,789 C 1329,787 1326,785 1323,783 1263,739 1183,712 1084,702 L 1084,702 C 1058,700 1031,699 1005,699 1004,699 1003,699 1003,699 L 449,699 449,699 Z M 7124,699 L 7124,1354 7626,1354 7626,1354 C 7627,1354 7629,1354 7630,1354 7665,1354 7701,1353 7737,1350 7809,1343 7870,1330 7918,1311 L 7918,1311 C 7919,1310 7921,1309 7922,1309 7982,1283 8026,1250 8055,1209 L 8055,1209 C 8060,1203 8064,1197 8068,1190 8069,1189 8070,1187 8071,1185 8099,1133 8113,1074 8113,1010 L 8113,1010 C 8113,1008 8113,1007 8113,1006 8113,966 8105,927 8089,891 8071,852 8043,818 8006,789 L 8006,789 C 8003,787 8001,785 7998,783 7937,739 7858,712 7759,702 L 7759,702 C 7733,700 7706,699 7679,699 7679,699 7678,699 7678,699 L 7124,699 7124,699 Z M 2400,1653 L 3292,1653 3292,1653 C 3290,1616 3285,1580 3277,1544 3263,1488 3242,1440 3212,1399 L 3212,1399 C 3185,1363 3154,1330 3117,1303 L 3117,1303 C 3104,1293 3091,1284 3076,1275 3065,1269 3053,1263 3041,1257 L 3041,1257 C 3006,1241 2968,1229 2930,1221 L 2930,1221 C 2902,1215 2873,1212 2845,1212 L 2845,1212 C 2797,1212 2749,1220 2704,1235 L 2704,1235 C 2685,1242 2666,1249 2648,1257 L 2648,1257 C 2636,1263 2625,1269 2614,1275 2569,1301 2529,1335 2497,1375 L 2497,1375 C 2491,1383 2484,1391 2479,1399 2432,1464 2406,1548 2400,1653 L 2400,1653 Z M 4112,1653 L 5004,1653 5004,1653 C 5002,1616 4997,1580 4988,1544 4975,1488 4953,1440 4924,1399 L 4924,1399 C 4897,1363 4865,1330 4829,1303 L 4829,1303 C 4816,1293 4802,1284 4788,1275 4777,1269 4765,1263 4753,1257 L 4753,1257 C 4717,1241 4680,1229 4642,1221 L 4642,1221 C 4614,1215 4585,1212 4556,1212 L 4556,1212 C 4508,1212 4461,1220 4416,1235 L 4416,1235 C 4397,1242 4378,1249 4360,1257 L 4360,1257 C 4348,1263 4337,1269 4325,1275 4281,1301 4241,1335 4209,1375 L 4209,1375 C 4202,1383 4196,1391 4190,1399 4144,1464 4118,1548 4112,1653 L 4112,1653 Z"/>
         <path fill="none" stroke="rgb(0,0,0)" stroke-width="30" stroke-linejoin="miter" stroke-linecap="round" d="M 1042,2550 L 310,2550 310,2550 C 310,2550 309,2550 309,2550 290,2550 271,2546 254,2539 L 254,2539 C 250,2537 246,2535 241,2532 231,2526 222,2519 213,2511 187,2484 174,2452 174,2414 L 174,581 C 174,543 187,510 213,483 240,456 272,442 310,442 L 1024,442 C 1172,442 1296,464 1396,509 L 1396,509 C 1414,517 1431,525 1448,535 1476,552 1504,571 1529,593 L 1529,593 C 1571,629 1607,672 1634,720 1676,792 1698,872 1700,955 L 1700,955 C 1701,966 1701,977 1701,989 1701,1113 1671,1214 1611,1289 1550,1365 1482,1419 1405,1454 1478,1476 1546,1509 1609,1553 1673,1598 1724,1653 1762,1719 L 1762,1719 C 1786,1762 1802,1808 1811,1855 L 1811,1855 C 1816,1888 1819,1922 1819,1955 1819,1956 1819,1957 1819,1958 1819,2075 1794,2178 1742,2267 L 1742,2267 C 1707,2328 1659,2379 1601,2418 L 1601,2418 C 1588,2426 1575,2434 1562,2442 1540,2455 1517,2466 1494,2476 1411,2512 1309,2534 1188,2544 L 1188,2544 C 1140,2548 1093,2550 1046,2550 1044,2550 1043,2550 1042,2550 L 1042,2550 Z"/>
         <path fill="none" stroke="rgb(0,0,0)" stroke-width="30" stroke-linejoin="miter" stroke-linecap="round" d="M 7717,2550 L 6985,2550 6985,2550 C 6984,2550 6984,2550 6983,2550 6965,2550 6946,2546 6929,2539 L 6929,2539 C 6925,2537 6920,2535 6916,2532 6906,2526 6897,2519 6888,2511 6862,2484 6849,2452 6849,2414 L 6849,581 C 6849,543 6862,510 6888,483 6914,456 6947,442 6985,442 L 7699,442 C 7846,442 7970,464 8071,509 L 8071,509 C 8088,517 8106,525 8122,535 8151,552 8179,571 8204,593 L 8204,593 C 8246,629 8281,672 8309,720 8350,792 8373,872 8375,955 L 8375,955 C 8376,966 8376,977 8376,989 8376,1113 8346,1214 8285,1289 8225,1365 8156,1419 8080,1454 8152,1476 8220,1509 8284,1553 8347,1598 8398,1653 8437,1719 L 8437,1719 C 8461,1762 8477,1808 8485,1855 L 8485,1855 C 8491,1888 8494,1922 8494,1955 8494,1956 8494,1957 8494,1958 8494,2075 8468,2178 8417,2267 L 8417,2267 C 8382,2328 8333,2379 8275,2418 L 8275,2418 C 8263,2426 8250,2434 8237,2442 8215,2455 8192,2466 8169,2476 8086,2512 7984,2534 7862,2544 L 7862,2544 C 7815,2548 7768,2550 7720,2550 7719,2550 7718,2550 7717,2550 Z"/>
         <path fill="none" stroke="rgb(0,0,0)" stroke-width="30" stroke-linejoin="miter" stroke-linecap="round" d="M 3425,1876 L 2400,1876 C 2416,2011 2468,2119 2554,2201 L 2554,2201 C 2577,2222 2602,2240 2629,2256 2657,2272 2687,2285 2719,2295 2761,2308 2807,2316 2858,2320 L 2858,2320 C 2881,2322 2905,2323 2928,2323 2928,2323 2929,2323 2929,2323 L 2929,2323 C 2930,2323 2931,2323 2932,2323 2963,2323 2994,2322 3025,2320 3057,2317 3086,2313 3113,2308 L 3113,2308 C 3128,2305 3144,2302 3159,2298 3222,2281 3281,2258 3338,2230 L 3338,2230 C 3350,2223 3364,2220 3378,2218 L 3378,2218 C 3383,2218 3387,2218 3392,2218 3392,2218 3392,2218 3392,2218 3424,2218 3452,2229 3477,2251 L 3477,2251 C 3485,2258 3493,2267 3498,2277 3508,2293 3513,2312 3513,2330 L 3513,2330 C 3513,2332 3513,2334 3513,2335 3513,2335 3513,2335 3513,2335 3513,2360 3505,2381 3490,2400 3475,2419 3456,2435 3434,2447 L 3434,2447 C 3370,2484 3303,2514 3233,2537 L 3233,2537 C 3228,2539 3223,2541 3218,2542 L 3218,2542 C 3189,2551 3159,2559 3129,2564 3066,2575 2991,2580 2906,2580 L 2906,2580 C 2905,2580 2905,2580 2905,2580 2905,2580 2905,2580 2905,2580 2659,2580 2467,2510 2329,2370 2199,2238 2130,2056 2122,1823 L 2122,1823 C 2122,1809 2122,1794 2122,1780 2122,1780 2122,1780 2122,1780 2122,1643 2147,1514 2197,1392 2248,1270 2326,1171 2433,1094 2534,1022 2662,984 2817,980 L 2817,980 C 2826,980 2835,980 2844,980 2844,980 2844,980 2845,980 L 2845,980 C 2846,980 2848,980 2850,980 2910,980 2970,986 3028,999 L 3028,999 C 3090,1012 3150,1035 3206,1067 3217,1073 3227,1080 3238,1087 3345,1158 3426,1251 3481,1366 L 3481,1366 C 3535,1479 3564,1603 3564,1728 L 3564,1728 C 3564,1732 3564,1736 3564,1740 3564,1779 3552,1811 3527,1837 L 3527,1837 C 3518,1846 3509,1853 3499,1859 3485,1867 3470,1872 3454,1874 L 3454,1874 C 3444,1876 3435,1876 3426,1876 3426,1876 3425,1876 3425,1876 L 3425,1876 Z"/>
         <path fill="none" stroke="rgb(0,0,0)" stroke-width="30" stroke-linejoin="miter" stroke-linecap="round" d="M 5137,1876 L 4112,1876 C 4128,2011 4179,2119 4266,2201 L 4266,2201 C 4289,2222 4314,2240 4341,2256 4369,2272 4399,2285 4431,2295 4473,2308 4519,2316 4570,2320 L 4570,2320 C 4593,2322 4616,2323 4640,2323 4640,2323 4641,2323 4641,2323 L 4641,2323 C 4642,2323 4643,2323 4644,2323 4675,2323 4706,2322 4737,2320 4768,2317 4798,2313 4825,2308 L 4825,2308 C 4840,2305 4856,2302 4871,2298 4933,2281 4993,2258 5049,2230 L 5049,2230 C 5062,2223 5076,2220 5090,2218 L 5090,2218 C 5094,2218 5099,2218 5104,2218 5104,2218 5104,2218 5104,2218 5136,2218 5164,2229 5188,2251 L 5188,2251 C 5197,2258 5204,2267 5210,2277 5219,2293 5224,2312 5225,2330 L 5225,2330 C 5225,2332 5225,2334 5225,2335 5225,2335 5225,2335 5225,2335 5225,2360 5217,2381 5202,2400 5187,2419 5168,2435 5146,2447 L 5146,2447 C 5082,2484 5014,2514 4944,2537 L 4944,2537 C 4940,2539 4935,2541 4930,2542 L 4930,2542 C 4901,2551 4871,2559 4840,2564 4777,2575 4703,2580 4617,2580 L 4617,2580 C 4617,2580 4617,2580 4617,2580 4617,2580 4617,2580 4617,2580 4371,2580 4179,2510 4041,2370 3910,2238 3842,2056 3834,1823 L 3834,1823 C 3834,1809 3834,1794 3834,1780 3834,1780 3834,1780 3834,1780 3834,1643 3859,1514 3909,1392 3960,1270 4038,1171 4145,1094 4246,1022 4374,984 4529,980 L 4529,980 C 4538,980 4547,980 4556,980 4556,980 4556,980 4556,980 L 4556,980 C 4558,980 4560,980 4562,980 4622,980 4681,986 4740,999 L 4740,999 C 4802,1012 4862,1035 4917,1067 4928,1073 4939,1080 4950,1087 5056,1158 5138,1251 5193,1366 L 5193,1366 C 5247,1479 5275,1603 5276,1728 L 5276,1728 C 5276,1732 5276,1736 5276,1740 5276,1779 5264,1811 5238,1837 L 5238,1837 C 5230,1846 5221,1853 5211,1859 5197,1867 5181,1872 5165,1874 L 5165,1874 C 5156,1876 5147,1876 5138,1876 5137,1876 5137,1876 5137,1876 L 5137,1876 Z"/>
         <path fill="none" stroke="rgb(0,0,0)" stroke-width="30" stroke-linejoin="miter" stroke-linecap="round" d="M 5730,2181 L 5730,1245 5515,1245 5515,1245 C 5515,1245 5514,1245 5514,1245 5507,1245 5499,1244 5492,1242 5475,1238 5465,1226 5460,1209 L 5460,1209 C 5458,1203 5458,1196 5458,1189 5458,1189 5458,1188 5458,1188 L 5458,1188 C 5458,1188 5458,1188 5458,1188 5458,1177 5460,1167 5466,1158 5469,1153 5472,1148 5476,1144 L 5476,1144 C 5479,1141 5482,1139 5485,1137 L 5896,735 5896,735 C 5897,734 5899,732 5900,731 5904,728 5909,723 5916,718 L 5916,718 C 5918,717 5920,716 5922,714 5929,710 5938,708 5947,708 5947,708 5947,708 5947,708 L 5947,708 C 5947,708 5947,708 5947,708 5947,708 5947,708 5948,708 L 5948,708 C 5948,708 5948,708 5948,708 5958,708 5967,710 5975,715 5979,717 5983,720 5987,724 L 5987,724 C 5987,725 5988,725 5988,726 5999,738 6005,752 6005,768 L 6005,1010 6347,1010 6347,1010 C 6347,1010 6348,1010 6348,1010 6362,1010 6375,1012 6388,1016 L 6388,1016 C 6395,1018 6402,1021 6408,1025 6417,1030 6425,1036 6431,1043 L 6431,1043 C 6438,1050 6445,1058 6449,1066 6458,1082 6463,1099 6464,1116 L 6464,1116 C 6465,1120 6465,1124 6465,1127 6465,1127 6465,1127 6465,1127 6465,1160 6454,1187 6431,1211 L 6431,1211 C 6424,1218 6416,1225 6406,1230 6390,1240 6371,1245 6352,1245 L 6352,1245 C 6350,1245 6349,1245 6347,1245 L 6005,1245 6005,2157 6005,2157 C 6005,2158 6005,2158 6005,2159 6005,2173 6006,2187 6008,2201 6011,2233 6020,2259 6033,2277 L 6033,2277 C 6035,2280 6036,2282 6038,2284 L 6038,2284 C 6048,2296 6061,2307 6074,2315 L 6074,2315 C 6075,2315 6075,2315 6076,2316 6089,2323 6103,2328 6118,2331 L 6118,2331 C 6131,2333 6144,2335 6157,2336 6169,2337 6181,2338 6191,2338 L 6191,2338 C 6195,2338 6198,2338 6202,2338 6250,2338 6286,2334 6309,2325 6332,2316 6357,2311 6383,2311 L 6383,2311 C 6383,2311 6383,2311 6383,2311 6402,2311 6421,2316 6438,2326 6444,2330 6451,2334 6456,2339 L 6456,2339 C 6457,2340 6458,2341 6459,2341 L 6459,2341 C 6466,2348 6473,2357 6478,2366 6487,2380 6491,2397 6492,2414 L 6492,2414 C 6492,2416 6492,2418 6492,2420 L 6492,2420 C 6492,2421 6492,2422 6492,2422 6492,2441 6487,2460 6478,2476 6471,2488 6462,2499 6451,2507 L 6451,2507 C 6444,2513 6437,2517 6429,2522 6427,2523 6425,2524 6422,2526 L 6422,2526 C 6390,2540 6356,2552 6321,2561 L 6321,2561 C 6316,2562 6311,2564 6306,2565 L 6306,2565 C 6278,2572 6249,2576 6220,2578 L 6220,2578 C 6204,2579 6188,2580 6172,2580 6172,2580 6172,2580 6171,2580 L 6171,2580 C 6156,2580 6140,2579 6124,2578 6099,2577 6072,2574 6043,2569 L 6043,2569 C 5999,2563 5956,2550 5915,2530 L 5915,2530 C 5909,2527 5904,2524 5898,2521 L 5898,2521 C 5895,2520 5893,2518 5891,2517 5861,2500 5836,2479 5814,2453 L 5814,2453 C 5801,2437 5789,2420 5778,2402 5754,2360 5738,2308 5732,2244 L 5732,2244 C 5731,2224 5730,2203 5730,2183 5730,2182 5730,2182 5730,2181 Z"/>
         <path fill="none" stroke="rgb(0,0,0)" stroke-width="30" stroke-linejoin="miter" stroke-linecap="round" d="M 10820,2181 L 10820,1245 10605,1245 10605,1245 C 10605,1245 10604,1245 10604,1245 10597,1245 10589,1244 10582,1242 10565,1238 10555,1226 10550,1209 L 10550,1209 C 10548,1203 10548,1196 10548,1189 10548,1189 10548,1188 10548,1188 L 10548,1188 C 10548,1188 10548,1188 10548,1188 10548,1177 10550,1167 10556,1158 10559,1153 10562,1148 10566,1144 L 10566,1144 C 10569,1141 10572,1139 10575,1137 L 10986,735 10986,735 C 10987,734 10989,732 10990,731 10994,728 10999,723 11006,718 L 11006,718 C 11008,717 11010,716 11012,714 11019,710 11028,708 11037,708 11037,708 11037,708 11037,708 L 11037,708 C 11037,708 11037,708 11037,708 11037,708 11037,708 11038,708 L 11038,708 C 11038,708 11038,708 11038,708 11048,708 11057,710 11065,715 11069,717 11073,720 11077,724 L 11077,724 C 11077,725 11078,725 11078,726 11090,738 11095,752 11095,768 L 11095,1010 11437,1010 11437,1010 C 11437,1010 11438,1010 11438,1010 11452,1010 11465,1012 11478,1016 L 11478,1016 C 11485,1018 11492,1021 11498,1025 11507,1030 11515,1036 11521,1043 L 11521,1043 C 11528,1050 11535,1058 11539,1066 11548,1082 11553,1099 11554,1116 L 11554,1116 C 11555,1120 11555,1124 11555,1127 11555,1127 11555,1127 11555,1127 11555,1160 11544,1187 11521,1211 L 11521,1211 C 11514,1218 11506,1225 11496,1230 11480,1240 11461,1245 11442,1245 L 11442,1245 C 11440,1245 11439,1245 11437,1245 L 11095,1245 11095,2157 11095,2157 C 11095,2158 11095,2158 11095,2159 11095,2173 11096,2187 11098,2201 11101,2233 11110,2259 11123,2277 L 11123,2277 C 11125,2280 11126,2282 11128,2284 L 11128,2284 C 11139,2296 11151,2307 11164,2315 L 11164,2315 C 11165,2315 11165,2315 11166,2316 11179,2323 11193,2328 11208,2331 L 11208,2331 C 11221,2333 11234,2335 11247,2336 11259,2337 11271,2338 11281,2338 L 11281,2338 C 11285,2338 11288,2338 11292,2338 11340,2338 11376,2334 11399,2325 11422,2316 11447,2311 11473,2311 L 11473,2311 C 11473,2311 11473,2311 11473,2311 11492,2311 11511,2316 11528,2326 11534,2330 11541,2334 11546,2339 L 11546,2339 C 11547,2340 11548,2341 11549,2341 L 11549,2341 C 11557,2348 11563,2357 11568,2366 11577,2380 11581,2397 11582,2414 L 11582,2414 C 11582,2416 11582,2418 11582,2420 L 11582,2420 C 11582,2421 11582,2422 11582,2422 11582,2441 11577,2460 11568,2476 11561,2488 11552,2499 11541,2507 L 11541,2507 C 11534,2513 11527,2517 11519,2522 11517,2523 11515,2524 11512,2526 L 11512,2526 C 11480,2540 11446,2552 11411,2561 L 11411,2561 C 11406,2562 11401,2564 11396,2565 L 11396,2565 C 11368,2572 11339,2576 11310,2578 L 11310,2578 C 11294,2579 11278,2580 11262,2580 11262,2580 11262,2580 11261,2580 L 11261,2580 C 11246,2580 11230,2579 11214,2578 11189,2577 11162,2574 11133,2569 L 11133,2569 C 11089,2563 11046,2550 11005,2530 L 11005,2530 C 10999,2527 10994,2524 10988,2521 L 10988,2521 C 10985,2520 10983,2518 10981,2517 10951,2500 10926,2479 10904,2453 L 10904,2453 C 10891,2437 10879,2420 10868,2402 10844,2360 10828,2308 10823,2244 L 10823,2244 C 10821,2224 10820,2203 10820,2183 10820,2182 10820,2182 10820,2181 L 10820,2181 Z"/>
         <path fill="none" stroke="rgb(0,0,0)" stroke-width="30" stroke-linejoin="miter" stroke-linecap="round" d="M 9352,2555 L 9352,2555 C 9422,2571 9493,2580 9565,2580 9567,2580 9569,2580 9571,2580 L 9571,2580 C 9572,2580 9572,2580 9573,2580 9619,2580 9665,2577 9711,2570 L 9711,2570 C 9805,2557 9895,2526 9978,2479 10093,2411 10184,2318 10248,2198 L 10248,2198 C 10282,2135 10307,2067 10322,1997 L 10322,1997 C 10337,1928 10345,1857 10345,1785 10345,1784 10345,1782 10345,1780 L 10345,1780 C 10345,1779 10345,1778 10345,1777 10345,1725 10341,1674 10334,1623 L 10334,1623 C 10320,1531 10292,1443 10248,1362 10184,1242 10093,1148 9978,1081 L 9978,1081 C 9977,1081 9977,1080 9977,1080 9916,1045 9851,1019 9783,1003 L 9783,1003 C 9715,987 9646,980 9576,980 9575,980 9573,980 9571,980 L 9571,980 C 9570,980 9569,980 9568,980 9525,980 9481,983 9438,988 L 9438,988 C 9341,1001 9247,1032 9162,1081 9046,1148 8955,1242 8892,1362 L 8892,1362 C 8858,1425 8834,1492 8819,1562 L 8819,1562 C 8804,1632 8797,1703 8797,1774 8797,1776 8797,1778 8797,1780 L 8797,1780 C 8797,1781 8797,1782 8797,1783 8797,1835 8800,1886 8808,1938 L 8808,1938 C 8821,2029 8849,2117 8892,2198 8955,2318 9046,2411 9162,2479 L 9162,2479 C 9222,2513 9286,2538 9352,2555 Z"/>
         <path fill="none" stroke="rgb(0,0,0)" stroke-width="30" stroke-linejoin="miter" stroke-linecap="round" d="M 9571,2329 C 9647,2329 9724,2311 9801,2275 L 9801,2275 C 9811,2270 9820,2265 9830,2260 9876,2233 9917,2198 9951,2156 L 9951,2156 C 9966,2138 9980,2118 9993,2098 L 9993,2098 C 9995,2095 9997,2091 10000,2087 10021,2050 10037,2010 10048,1968 10062,1912 10070,1848 10070,1777 10070,1644 10044,1537 9993,1457 9941,1376 9877,1318 9801,1283 L 9801,1283 C 9755,1262 9707,1246 9657,1238 L 9657,1238 C 9628,1233 9600,1230 9571,1230 L 9571,1230 C 9510,1230 9451,1241 9394,1261 L 9394,1261 C 9375,1268 9357,1275 9339,1283 L 9339,1283 C 9327,1288 9316,1294 9304,1301 9255,1329 9213,1367 9178,1412 L 9178,1412 C 9167,1426 9157,1441 9147,1457 L 9147,1457 C 9145,1460 9143,1463 9141,1467 9120,1503 9105,1542 9094,1582 9079,1639 9072,1704 9072,1777 L 9072,1777 C 9072,1778 9072,1780 9072,1781 9072,1822 9075,1864 9081,1905 9092,1980 9114,2045 9147,2098 L 9147,2098 C 9172,2138 9201,2174 9236,2206 L 9236,2206 C 9258,2226 9282,2244 9308,2258 9318,2264 9329,2270 9339,2275 L 9339,2275 C 9383,2295 9428,2311 9475,2320 L 9475,2320 C 9507,2326 9539,2329 9571,2329 Z"/>
         <path fill="none" stroke="rgb(0,0,0)" stroke-width="30" stroke-linejoin="miter" stroke-linecap="round" d="M 449,1602 L 449,2293 1015,2293 1015,2293 C 1016,2293 1018,2293 1019,2293 1058,2293 1097,2292 1136,2289 1212,2283 1276,2271 1327,2254 L 1327,2254 C 1331,2252 1336,2251 1340,2249 L 1340,2249 C 1363,2241 1386,2230 1408,2217 1409,2217 1411,2216 1412,2215 1438,2199 1460,2182 1478,2162 L 1478,2162 C 1488,2151 1497,2140 1505,2127 L 1505,2127 C 1506,2125 1507,2123 1509,2120 1532,2079 1547,2034 1551,1987 L 1551,1987 C 1552,1973 1553,1960 1553,1946 1553,1946 1553,1946 1553,1946 L 1553,1946 C 1553,1944 1553,1943 1553,1942 1553,1907 1548,1872 1538,1839 L 1538,1839 C 1532,1819 1524,1801 1514,1783 1490,1742 1456,1708 1416,1685 1416,1685 1416,1685 1416,1685 L 1416,1685 C 1414,1684 1413,1683 1412,1682 1376,1662 1338,1646 1298,1635 1221,1613 1128,1602 1018,1602 L 449,1602 Z"/>
         <path fill="none" stroke="rgb(0,0,0)" stroke-width="30" stroke-linejoin="miter" stroke-linecap="round" d="M 7124,1602 L 7124,2293 7690,2293 7690,2293 C 7691,2293 7692,2293 7694,2293 7733,2293 7771,2292 7810,2289 7887,2283 7950,2271 8002,2254 L 8002,2254 C 8006,2252 8010,2251 8015,2249 L 8015,2249 C 8038,2241 8061,2230 8083,2217 8084,2217 8085,2216 8087,2215 8113,2199 8135,2182 8153,2162 L 8153,2162 C 8163,2151 8172,2140 8180,2127 L 8180,2127 C 8181,2125 8182,2123 8183,2120 8207,2079 8222,2034 8226,1987 L 8226,1987 C 8227,1973 8228,1960 8228,1946 8228,1946 8228,1946 8228,1946 L 8228,1946 C 8228,1944 8228,1943 8228,1942 8228,1907 8223,1872 8213,1839 L 8213,1839 C 8207,1819 8199,1801 8189,1783 8165,1742 8131,1708 8090,1685 8090,1685 8090,1685 8090,1685 L 8090,1685 C 8089,1684 8088,1683 8087,1682 8051,1662 8013,1646 7973,1635 7896,1613 7802,1602 7693,1602 L 7124,1602 Z"/>
         <path fill="none" stroke="rgb(0,0,0)" stroke-width="30" stroke-linejoin="miter" stroke-linecap="round" d="M 449,699 L 449,1354 951,1354 951,1354 C 953,1354 954,1354 955,1354 991,1354 1026,1353 1062,1350 1135,1343 1195,1330 1243,1311 L 1243,1311 C 1244,1310 1246,1309 1248,1309 1307,1283 1351,1250 1381,1209 L 1381,1209 C 1385,1203 1389,1197 1393,1190 1394,1189 1395,1187 1396,1185 1424,1133 1438,1074 1438,1010 L 1438,1010 C 1438,1008 1438,1007 1438,1006 1438,966 1430,927 1414,891 1396,852 1368,818 1331,789 L 1331,789 C 1329,787 1326,785 1323,783 1263,739 1183,712 1084,702 L 1084,702 C 1058,700 1031,699 1005,699 1004,699 1003,699 1003,699 L 449,699 Z"/>
         <path fill="none" stroke="rgb(0,0,0)" stroke-width="30" stroke-linejoin="miter" stroke-linecap="round" d="M 7124,699 L 7124,1354 7626,1354 7626,1354 C 7627,1354 7629,1354 7630,1354 7665,1354 7701,1353 7737,1350 7809,1343 7870,1330 7918,1311 L 7918,1311 C 7919,1310 7921,1309 7922,1309 7982,1283 8026,1250 8055,1209 L 8055,1209 C 8060,1203 8064,1197 8068,1190 8069,1189 8070,1187 8071,1185 8099,1133 8113,1074 8113,1010 L 8113,1010 C 8113,1008 8113,1007 8113,1006 8113,966 8105,927 8089,891 8071,852 8043,818 8006,789 L 8006,789 C 8003,787 8001,785 7998,783 7937,739 7858,712 7759,702 L 7759,702 C 7733,700 7706,699 7679,699 7679,699 7678,699 7678,699 L 7124,699 Z"/>
         <path fill="none" stroke="rgb(0,0,0)" stroke-width="30" stroke-linejoin="miter" stroke-linecap="round" d="M 2400,1653 L 3292,1653 3292,1653 C 3290,1616 3285,1580 3277,1544 3263,1488 3242,1440 3212,1399 L 3212,1399 C 3185,1363 3154,1330 3117,1303 L 3117,1303 C 3104,1293 3091,1284 3076,1275 3065,1269 3053,1263 3041,1257 L 3041,1257 C 3006,1241 2968,1229 2930,1221 L 2930,1221 C 2902,1215 2873,1212 2845,1212 L 2845,1212 C 2797,1212 2749,1220 2704,1235 L 2704,1235 C 2685,1242 2666,1249 2648,1257 L 2648,1257 C 2636,1263 2625,1269 2614,1275 2569,1301 2529,1335 2497,1375 L 2497,1375 C 2491,1383 2484,1391 2479,1399 2432,1464 2406,1548 2400,1653 Z"/>
         <path fill="none" stroke="rgb(0,0,0)" stroke-width="30" stroke-linejoin="miter" stroke-linecap="round" d="M 4112,1653 L 5004,1653 5004,1653 C 5002,1616 4997,1580 4988,1544 4975,1488 4953,1440 4924,1399 L 4924,1399 C 4897,1363 4865,1330 4829,1303 L 4829,1303 C 4816,1293 4802,1284 4788,1275 4777,1269 4765,1263 4753,1257 L 4753,1257 C 4717,1241 4680,1229 4642,1221 L 4642,1221 C 4614,1215 4585,1212 4556,1212 L 4556,1212 C 4508,1212 4461,1220 4416,1235 L 4416,1235 C 4397,1242 4378,1249 4360,1257 L 4360,1257 C 4348,1263 4337,1269 4325,1275 4281,1301 4241,1335 4209,1375 L 4209,1375 C 4202,1383 4196,1391 4190,1399 4144,1464 4118,1548 4112,1653 Z"/>
        </g>
       </g>
      </g>
      <g class="Graphic">
       <g id="id4">
        <rect class="BoundingBox" stroke="none" fill="none" x="10818" y="-1100" width="5083" height="5081"/>
        <path fill="rgb(193,220,60)" stroke="none" d="M 14186,1271 C 13948,1280 13818,1184 13754,1109 13704,1050 13704,986 13740,932 13792,852 13905,748 14143,739 14304,733 14412,760 14486,799 14650,884 14653,1119 14489,1205 14422,1240 14325,1266 14186,1271 L 14186,1271 Z"/>
        <path fill="none" stroke="rgb(255,255,255)" stroke-width="250" stroke-linejoin="round" stroke-linecap="round" d="M 14186,1271 C 13948,1280 13818,1184 13754,1109 13704,1050 13704,986 13740,932 13792,852 13905,748 14143,739 14304,733 14412,760 14486,799 14650,884 14653,1119 14489,1205 14422,1240 14325,1266 14186,1271 Z"/>
        <path fill="rgb(193,220,60)" stroke="none" d="M 13528,613 C 13519,851 13615,981 13690,1045 13749,1095 13813,1095 13868,1059 13947,1007 14052,894 14060,656 14066,496 14039,387 14001,313 13915,149 13680,146 13594,310 13559,377 13533,474 13528,613 L 13528,613 Z"/>
        <path fill="none" stroke="rgb(255,255,255)" stroke-width="250" stroke-linejoin="round" stroke-linecap="round" d="M 13528,613 C 13519,851 13615,981 13690,1045 13749,1095 13813,1095 13868,1059 13947,1007 14052,894 14060,656 14066,496 14039,387 14001,313 13915,149 13680,146 13594,310 13559,377 13533,474 13528,613 Z"/>
        <path fill="rgb(255,94,138)" stroke="none" d="M 13722,2194 C 13322,2594 12347,2452 12347,2452 12347,2452 12204,1477 12604,1077 12913,769 13413,769 13721,1078 14030,1386 14030,1886 13722,2194 L 13722,2194 Z"/>
        <path fill="none" stroke="rgb(255,255,255)" stroke-width="250" stroke-linejoin="round" stroke-linecap="round" d="M 13722,2194 C 13322,2594 12347,2452 12347,2452 12347,2452 12204,1477 12604,1077 12913,769 13413,769 13721,1078 14030,1386 14030,1886 13722,2194 Z"/>
        <path fill="rgb(193,220,60)" stroke="none" d="M 14255,922 C 14087,1092 13928,1111 13829,1101 13753,1093 13709,1046 13697,982 13680,888 13690,735 13857,564 13970,450 14067,395 14147,372 14325,321 14489,491 14429,665 14404,737 14352,823 14255,922 L 14255,922 Z"/>
        <path fill="none" stroke="rgb(255,255,255)" stroke-width="250" stroke-linejoin="round" stroke-linecap="round" d="M 14255,922 C 14087,1092 13928,1111 13829,1101 13753,1093 13709,1046 13697,982 13680,888 13690,735 13857,564 13970,450 14067,395 14147,372 14325,321 14489,491 14429,665 14404,737 14352,823 14255,922 Z"/>
        <path fill="rgb(87,0,41)" stroke="none" d="M 13943,1300 C 14010,1322 14091,1334 14188,1331 14322,1326 14433,1301 14517,1257 14613,1207 14670,1112 14670,1003 14670,894 14610,796 14514,746 14499,738 14484,732 14468,725 14475,712 14480,698 14485,685 14520,582 14496,473 14421,394 14346,316 14235,285 14131,315 14112,320 14094,327 14075,335 14069,318 14061,301 14053,286 14003,189 13905,129 13796,129 13687,129 13592,186 13542,283 13498,367 13473,477 13468,611 13465,708 13477,789 13499,856 13189,723 12815,783 12562,1035 12386,1212 12286,1507 12266,1911 12252,2207 12287,2450 12288,2460 12290,2473 12296,2485 12305,2494 12314,2502 12325,2508 12338,2510 12349,2512 12591,2547 12887,2532 13292,2513 13587,2413 13764,2236 14017,1984 14076,1610 13943,1300 L 13943,1300 Z M 14459,851 C 14517,881 14551,938 14551,1003 14551,1067 14518,1123 14462,1152 14393,1188 14300,1208 14184,1212 14067,1216 13980,1193 13916,1161 14023,1152 14159,1104 14297,964 14341,919 14378,874 14409,830 14427,836 14443,843 14459,851 L 14459,851 Z M 14332,473 C 14333,474 14334,475 14335,476 14379,522 14393,586 14372,646 14347,719 14293,797 14212,880 14067,1028 13931,1051 13841,1042 L 14226,658 C 14249,635 14249,597 14226,574 14226,574 14226,574 14226,574 14203,551 14165,551 14142,574 L 13754,961 C 13741,877 13759,750 13900,606 13992,513 14080,453 14164,429 14225,412 14287,428 14332,473 L 14332,473 Z M 13587,615 C 13591,499 13611,406 13647,338 13676,281 13732,248 13796,248 13861,248 13918,283 13948,340 13956,356 13963,374 13970,392 13918,427 13867,470 13815,523 13688,652 13643,774 13634,874 13603,810 13583,726 13587,615 L 13587,615 Z M 12400,2398 C 12389,2300 12368,2053 12394,1791 L 12718,2114 C 12741,2137 12779,2137 12802,2114 12825,2091 12825,2053 12802,2030 L 12414,1643 C 12449,1442 12518,1247 12646,1119 12692,1074 12742,1035 12796,1004 L 13027,1235 C 13050,1258 13088,1258 13111,1235 13134,1212 13134,1174 13111,1151 L 12910,951 C 13169,856 13472,912 13679,1120 13964,1405 13964,1868 13680,2152 13606,2226 13511,2280 13405,2319 L 12983,1898 C 12960,1875 12922,1875 12899,1898 12876,1921 12876,1959 12899,1982 L 13276,2359 C 12933,2446 12532,2413 12400,2398 L 12400,2398 Z"/>
        <path fill="none" stroke="rgb(255,255,255)" stroke-width="250" stroke-linejoin="round" stroke-linecap="round" d="M 13943,1300 C 14010,1322 14091,1334 14188,1331 14322,1326 14433,1301 14517,1257 14613,1207 14670,1112 14670,1003 14670,894 14610,796 14514,746 14499,738 14484,732 14468,725 14475,712 14480,698 14485,685 14520,582 14496,473 14421,394 14346,316 14235,285 14131,315 14112,320 14094,327 14075,335 14069,318 14061,301 14053,286 14003,189 13905,129 13796,129 13687,129 13592,186 13542,283 13498,367 13473,477 13468,611 13465,708 13477,789 13499,856 13189,723 12815,783 12562,1035 12386,1212 12286,1507 12266,1911 12252,2207 12287,2450 12288,2460 12290,2473 12296,2485 12305,2494 12314,2502 12325,2508 12338,2510 12349,2512 12591,2547 12887,2532 13292,2513 13587,2413 13764,2236 14017,1984 14076,1610 13943,1300 Z"/>
        <path fill="none" stroke="rgb(255,255,255)" stroke-width="250" stroke-linejoin="round" stroke-linecap="round" d="M 14459,851 C 14517,881 14551,938 14551,1003 14551,1067 14518,1123 14462,1152 14393,1188 14300,1208 14184,1212 14067,1216 13980,1193 13916,1161 14023,1152 14159,1104 14297,964 14341,919 14378,874 14409,830 14427,836 14443,843 14459,851 Z"/>
        <path fill="none" stroke="rgb(255,255,255)" stroke-width="250" stroke-linejoin="round" stroke-linecap="round" d="M 14332,473 C 14333,474 14334,475 14335,476 14379,522 14393,586 14372,646 14347,719 14293,797 14212,880 14067,1028 13931,1051 13841,1042 L 14226,658 C 14249,635 14249,597 14226,574 L 14226,574 C 14203,551 14165,551 14142,574 L 13754,961 C 13741,877 13759,750 13900,606 13992,513 14080,453 14164,429 14225,412 14287,428 14332,473 Z"/>
        <path fill="none" stroke="rgb(255,255,255)" stroke-width="250" stroke-linejoin="round" stroke-linecap="round" d="M 13587,615 C 13591,499 13611,406 13647,338 13676,281 13732,248 13796,248 13861,248 13918,283 13948,340 13956,356 13963,374 13970,392 13918,427 13867,470 13815,523 13688,652 13643,774 13634,874 13603,810 13583,726 13587,615 Z"/>
        <path fill="none" stroke="rgb(255,255,255)" stroke-width="250" stroke-linejoin="round" stroke-linecap="round" d="M 12400,2398 C 12389,2300 12368,2053 12394,1791 L 12718,2114 C 12741,2137 12779,2137 12802,2114 12825,2091 12825,2053 12802,2030 L 12414,1643 C 12449,1442 12518,1247 12646,1119 12692,1074 12742,1035 12796,1004 L 13027,1235 C 13050,1258 13088,1258 13111,1235 13134,1212 13134,1174 13111,1151 L 12910,951 C 13169,856 13472,912 13679,1120 13964,1405 13964,1868 13680,2152 13606,2226 13511,2280 13405,2319 L 12983,1898 C 12960,1875 12922,1875 12899,1898 12876,1921 12876,1959 12899,1982 L 13276,2359 C 12933,2446 12532,2413 12400,2398 Z"/>
        <path fill="rgb(87,0,41)" stroke="none" d="M 13289,1329 L 13264,1304 C 13241,1281 13203,1281 13180,1304 13157,1327 13157,1365 13180,1388 L 13205,1413 C 13228,1436 13265,1436 13289,1413 13312,1389 13312,1352 13289,1329 L 13289,1329 Z"/>
        <path fill="none" stroke="rgb(255,255,255)" stroke-width="250" stroke-linejoin="round" stroke-linecap="round" d="M 13289,1329 L 13264,1304 C 13241,1281 13203,1281 13180,1304 13157,1327 13157,1365 13180,1388 L 13205,1413 C 13228,1436 13265,1436 13289,1413 13312,1389 13312,1352 13289,1329 Z"/>
        <path fill="rgb(193,220,60)" stroke="none" d="M 14186,1271 C 13948,1280 13818,1184 13754,1109 13704,1050 13704,986 13740,932 13792,852 13905,748 14143,739 14304,733 14412,760 14486,799 14650,884 14653,1119 14489,1205 14422,1240 14325,1266 14186,1271 L 14186,1271 Z"/>
        <path fill="none" stroke="none" d="M 14186,1271 C 13948,1280 13818,1184 13754,1109 13704,1050 13704,986 13740,932 13792,852 13905,748 14143,739 14304,733 14412,760 14486,799 14650,884 14653,1119 14489,1205 14422,1240 14325,1266 14186,1271 Z"/>
        <path fill="rgb(193,220,60)" stroke="none" d="M 13528,613 C 13519,851 13615,981 13690,1045 13749,1095 13813,1095 13868,1059 13947,1007 14052,894 14060,656 14066,496 14039,387 14001,313 13915,149 13680,146 13594,310 13559,377 13533,474 13528,613 L 13528,613 Z"/>
        <path fill="none" stroke="none" d="M 13528,613 C 13519,851 13615,981 13690,1045 13749,1095 13813,1095 13868,1059 13947,1007 14052,894 14060,656 14066,496 14039,387 14001,313 13915,149 13680,146 13594,310 13559,377 13533,474 13528,613 Z"/>
        <path fill="rgb(255,94,138)" stroke="none" d="M 13722,2194 C 13322,2594 12347,2452 12347,2452 12347,2452 12204,1477 12604,1077 12913,769 13413,769 13721,1078 14030,1386 14030,1886 13722,2194 L 13722,2194 Z"/>
        <path fill="none" stroke="none" d="M 13722,2194 C 13322,2594 12347,2452 12347,2452 12347,2452 12204,1477 12604,1077 12913,769 13413,769 13721,1078 14030,1386 14030,1886 13722,2194 Z"/>
        <path fill="rgb(193,220,60)" stroke="none" d="M 14255,922 C 14087,1092 13928,1111 13829,1101 13753,1093 13709,1046 13697,982 13680,888 13690,735 13857,564 13970,450 14067,395 14147,372 14325,321 14489,491 14429,665 14404,737 14352,823 14255,922 L 14255,922 Z"/>
        <path fill="none" stroke="none" d="M 14255,922 C 14087,1092 13928,1111 13829,1101 13753,1093 13709,1046 13697,982 13680,888 13690,735 13857,564 13970,450 14067,395 14147,372 14325,321 14489,491 14429,665 14404,737 14352,823 14255,922 Z"/>
        <path fill="rgb(87,0,41)" stroke="none" d="M 13943,1300 C 14010,1322 14091,1334 14188,1331 14322,1326 14433,1301 14517,1257 14613,1207 14670,1112 14670,1003 14670,894 14610,796 14514,746 14499,738 14484,732 14468,725 14475,712 14480,698 14485,685 14520,582 14496,473 14421,394 14346,316 14235,285 14131,315 14112,320 14094,327 14075,335 14069,318 14061,301 14053,286 14003,189 13905,129 13796,129 13687,129 13592,186 13542,283 13498,367 13473,477 13468,611 13465,708 13477,789 13499,856 13189,723 12815,783 12562,1035 12386,1212 12286,1507 12266,1911 12252,2207 12287,2450 12288,2460 12290,2473 12296,2485 12305,2494 12314,2502 12325,2508 12338,2510 12349,2512 12591,2547 12887,2532 13292,2513 13587,2413 13764,2236 14017,1984 14076,1610 13943,1300 L 13943,1300 Z M 14459,851 C 14517,881 14551,938 14551,1003 14551,1067 14518,1123 14462,1152 14393,1188 14300,1208 14184,1212 14067,1216 13980,1193 13916,1161 14023,1152 14159,1104 14297,964 14341,919 14378,874 14409,830 14427,836 14443,843 14459,851 L 14459,851 Z M 14332,473 C 14333,474 14334,475 14335,476 14379,522 14393,586 14372,646 14347,719 14293,797 14212,880 14067,1028 13931,1051 13841,1042 L 14226,658 C 14249,635 14249,597 14226,574 14226,574 14226,574 14226,574 14203,551 14165,551 14142,574 L 13754,961 C 13741,877 13759,750 13900,606 13992,513 14080,453 14164,429 14225,412 14287,428 14332,473 L 14332,473 Z M 13587,615 C 13591,499 13611,406 13647,338 13676,281 13732,248 13796,248 13861,248 13918,283 13948,340 13956,356 13963,374 13970,392 13918,427 13867,470 13815,523 13688,652 13643,774 13634,874 13603,810 13583,726 13587,615 L 13587,615 Z M 12400,2398 C 12389,2300 12368,2053 12394,1791 L 12718,2114 C 12741,2137 12779,2137 12802,2114 12825,2091 12825,2053 12802,2030 L 12414,1643 C 12449,1442 12518,1247 12646,1119 12692,1074 12742,1035 12796,1004 L 13027,1235 C 13050,1258 13088,1258 13111,1235 13134,1212 13134,1174 13111,1151 L 12910,951 C 13169,856 13472,912 13679,1120 13964,1405 13964,1868 13680,2152 13606,2226 13511,2280 13405,2319 L 12983,1898 C 12960,1875 12922,1875 12899,1898 12876,1921 12876,1959 12899,1982 L 13276,2359 C 12933,2446 12532,2413 12400,2398 L 12400,2398 Z"/>
        <path fill="none" stroke="none" d="M 13943,1300 C 14010,1322 14091,1334 14188,1331 14322,1326 14433,1301 14517,1257 14613,1207 14670,1112 14670,1003 14670,894 14610,796 14514,746 14499,738 14484,732 14468,725 14475,712 14480,698 14485,685 14520,582 14496,473 14421,394 14346,316 14235,285 14131,315 14112,320 14094,327 14075,335 14069,318 14061,301 14053,286 14003,189 13905,129 13796,129 13687,129 13592,186 13542,283 13498,367 13473,477 13468,611 13465,708 13477,789 13499,856 13189,723 12815,783 12562,1035 12386,1212 12286,1507 12266,1911 12252,2207 12287,2450 12288,2460 12290,2473 12296,2485 12305,2494 12314,2502 12325,2508 12338,2510 12349,2512 12591,2547 12887,2532 13292,2513 13587,2413 13764,2236 14017,1984 14076,1610 13943,1300 Z"/>
        <path fill="none" stroke="none" d="M 14459,851 C 14517,881 14551,938 14551,1003 14551,1067 14518,1123 14462,1152 14393,1188 14300,1208 14184,1212 14067,1216 13980,1193 13916,1161 14023,1152 14159,1104 14297,964 14341,919 14378,874 14409,830 14427,836 14443,843 14459,851 Z"/>
        <path fill="none" stroke="none" d="M 14332,473 C 14333,474 14334,475 14335,476 14379,522 14393,586 14372,646 14347,719 14293,797 14212,880 14067,1028 13931,1051 13841,1042 L 14226,658 C 14249,635 14249,597 14226,574 L 14226,574 C 14203,551 14165,551 14142,574 L 13754,961 C 13741,877 13759,750 13900,606 13992,513 14080,453 14164,429 14225,412 14287,428 14332,473 Z"/>
        <path fill="none" stroke="none" d="M 13587,615 C 13591,499 13611,406 13647,338 13676,281 13732,248 13796,248 13861,248 13918,283 13948,340 13956,356 13963,374 13970,392 13918,427 13867,470 13815,523 13688,652 13643,774 13634,874 13603,810 13583,726 13587,615 Z"/>
        <path fill="none" stroke="none" d="M 12400,2398 C 12389,2300 12368,2053 12394,1791 L 12718,2114 C 12741,2137 12779,2137 12802,2114 12825,2091 12825,2053 12802,2030 L 12414,1643 C 12449,1442 12518,1247 12646,1119 12692,1074 12742,1035 12796,1004 L 13027,1235 C 13050,1258 13088,1258 13111,1235 13134,1212 13134,1174 13111,1151 L 12910,951 C 13169,856 13472,912 13679,1120 13964,1405 13964,1868 13680,2152 13606,2226 13511,2280 13405,2319 L 12983,1898 C 12960,1875 12922,1875 12899,1898 12876,1921 12876,1959 12899,1982 L 13276,2359 C 12933,2446 12532,2413 12400,2398 Z"/>
        <path fill="rgb(87,0,41)" stroke="none" d="M 13289,1329 L 13264,1304 C 13241,1281 13203,1281 13180,1304 13157,1327 13157,1365 13180,1388 L 13205,1413 C 13228,1436 13265,1436 13289,1413 13312,1389 13312,1352 13289,1329 L 13289,1329 Z"/>
        <path fill="none" stroke="none" d="M 13289,1329 L 13264,1304 C 13241,1281 13203,1281 13180,1304 13157,1327 13157,1365 13180,1388 L 13205,1413 C 13228,1436 13265,1436 13289,1413 13312,1389 13312,1352 13289,1329 Z"/>
       </g>
      </g>
     </g>
    </g>
   </g>
  </g>
 </g>
</svg>