<svg version="1.2" width="560.655" height="110.4" viewBox="0 0 14834 2921" preserveAspectRatio="xMidYMid" fill-rule="evenodd" stroke-width="28.222" stroke-linejoin="round" xmlns="http://www.w3.org/2000/svg" xml:space="preserve"><defs class="ClipPathGroup"><clipPath id="a" clipPathUnits="userSpaceOnUse"><path d="M0 0h14834v2921H0z"/></clipPath></defs><g class="SlideGroup"><g class="Slide" clip-path="url(#a)"><g class="Page"><g class="Graphic"><path class="BoundingBox" fill="none" d="M174 442h11409v2139H174z"/><defs><clipPath id="b" clipPathUnits="userSpaceOnUse"><path d="M174 442h11408v2138H174V442Z"/></clipPath></defs><g clip-path="url(#b)"><path fill="#FFF" d="M1042 2550H309c-19 0-38-4-55-11-4-2-8-4-13-7-10-6-19-13-28-21-26-27-39-59-39-97V581c0-38 13-71 39-98 27-27 59-41 97-41h714c148 0 272 22 372 67 18 8 35 16 52 26 28 17 56 36 81 58 42 36 78 79 105 127 42 72 64 152 66 235 1 11 1 22 1 34 0 124-30 225-90 300-61 76-129 130-206 165 73 22 141 55 204 99 64 45 115 100 153 166 24 43 40 89 49 136 5 33 8 67 8 100v3c0 117-25 220-77 309-35 61-83 112-141 151l-39 24c-22 13-45 24-68 34-83 36-185 58-306 68-48 4-95 6-142 6h-4Zm6675 0h-734c-18 0-37-4-54-11-4-2-9-4-13-7-10-6-19-13-28-21-26-27-39-59-39-97V581c0-38 13-71 39-98s59-41 97-41h714c147 0 271 22 372 67 17 8 35 16 51 26 29 17 57 36 82 58 42 36 77 79 105 127 41 72 64 152 66 235 1 11 1 22 1 34 0 124-30 225-91 300-60 76-129 130-205 165 72 22 140 55 204 99 63 45 114 100 153 166 24 43 40 89 48 136 6 33 9 67 9 100v3c0 117-26 220-77 309-35 61-84 112-142 151-12 8-25 16-38 24-22 13-45 24-68 34-83 36-185 58-307 68-47 4-94 6-142 6h-3Zm-4292-674H2400c16 135 68 243 154 325 23 21 48 39 75 55 28 16 58 29 90 39 42 13 88 21 139 25 23 2 47 3 70 3h4c31 0 62-1 93-3 32-3 61-7 88-12 15-3 31-6 46-10 63-17 122-40 179-68 12-7 26-10 40-12h14c32 0 60 11 85 33 8 7 16 16 21 26 10 16 15 35 15 53v5c0 25-8 46-23 65s-34 35-56 47c-64 37-131 67-201 90-5 2-10 4-15 5-29 9-59 17-89 22-63 11-138 16-223 16h-1c-246 0-438-70-576-210-130-132-199-314-207-547v-43c0-137 25-266 75-388 51-122 129-221 236-298 101-72 229-110 384-114h33c60 0 120 6 178 19 62 13 122 36 178 68 11 6 21 13 32 20 107 71 188 164 243 279 54 113 83 237 83 362v12c0 39-12 71-37 97-9 9-18 16-28 22-14 8-29 13-45 15-10 2-19 2-28 2h-1Zm1712 0H4112c16 135 67 243 154 325 23 21 48 39 75 55 28 16 58 29 90 39 42 13 88 21 139 25 23 2 46 3 70 3h4c31 0 62-1 93-3 31-3 61-7 88-12 15-3 31-6 46-10 62-17 122-40 178-68 13-7 27-10 41-12h14c32 0 60 11 84 33 9 7 16 16 22 26 9 16 14 35 15 53v5c0 25-8 46-23 65s-34 35-56 47c-64 37-132 67-202 90-4 2-9 4-14 5-29 9-59 17-90 22-63 11-137 16-223 16-246 0-438-70-576-210-131-132-199-314-207-547v-43c0-137 25-266 75-388 51-122 129-221 236-298 101-72 229-110 384-114h33c60 0 119 6 178 19 62 13 122 36 177 68 11 6 22 13 33 20 106 71 188 164 243 279 54 113 82 237 83 362v12c0 39-12 71-38 97-8 9-17 16-27 22-14 8-30 13-46 15-9 2-18 2-27 2h-1Zm593 305v-936h-216c-7 0-15-1-22-3-17-4-27-16-32-33-2-6-2-13-2-20v-1c0-11 2-21 8-30 3-5 6-10 10-14 3-3 6-5 9-7l411-402 4-4c4-3 9-8 16-13 2-1 4-2 6-4 7-4 16-6 25-6h1c10 0 19 2 27 7 4 2 8 5 12 9 0 1 1 1 1 2 11 12 17 26 17 42v242h343c14 0 27 2 40 6 7 2 14 5 20 9 9 5 17 11 23 18 7 7 14 15 18 23 9 16 14 33 15 50 1 4 1 8 1 11 0 33-11 60-34 84-7 7-15 14-25 19-16 10-35 15-54 15h-347v914c0 14 1 28 3 42 3 32 12 58 25 76 2 3 3 5 5 7 10 12 23 23 36 31 1 0 1 0 2 1 13 7 27 12 42 15 13 2 26 4 39 5 12 1 24 2 34 2h11c48 0 84-4 107-13s48-14 74-14c19 0 38 5 55 15 6 4 13 8 18 13 1 1 2 2 3 2 7 7 14 16 19 25 9 14 13 31 14 48v8c0 19-5 38-14 54-7 12-16 23-27 31-7 6-14 10-22 15-2 1-4 2-7 4-32 14-66 26-101 35-5 1-10 3-15 4-28 7-57 11-86 13-16 1-32 2-48 2h-1c-15 0-31-1-47-2-25-1-52-4-81-9-44-6-87-19-128-39-6-3-11-6-17-9-3-1-5-3-7-4-30-17-55-38-77-64-13-16-25-33-36-51-24-42-40-94-46-158-1-20-2-41-2-61v-2Zm5090 0v-936h-216c-7 0-15-1-22-3-17-4-27-16-32-33-2-6-2-13-2-20v-1c0-11 2-21 8-30 3-5 6-10 10-14 3-3 6-5 9-7l411-402 4-4c4-3 9-8 16-13 2-1 4-2 6-4 7-4 16-6 25-6h1c10 0 19 2 27 7 4 2 8 5 12 9 0 1 1 1 1 2 12 12 17 26 17 42v242h343c14 0 27 2 40 6 7 2 14 5 20 9 9 5 17 11 23 18 7 7 14 15 18 23 9 16 14 33 15 50 1 4 1 8 1 11 0 33-11 60-34 84-7 7-15 14-25 19-16 10-35 15-54 15h-347v914c0 14 1 28 3 42 3 32 12 58 25 76 2 3 3 5 5 7 11 12 23 23 36 31 1 0 1 0 2 1 13 7 27 12 42 15 13 2 26 4 39 5 12 1 24 2 34 2h11c48 0 84-4 107-13s48-14 74-14c19 0 38 5 55 15 6 4 13 8 18 13 1 1 2 2 3 2 8 7 14 16 19 25 9 14 13 31 14 48v8c0 19-5 38-14 54-7 12-16 23-27 31-7 6-14 10-22 15-2 1-4 2-7 4-32 14-66 26-101 35-5 1-10 3-15 4-28 7-57 11-86 13-16 1-32 2-48 2h-1c-15 0-31-1-47-2-25-1-52-4-81-9-44-6-87-19-128-39-6-3-11-6-17-9-3-1-5-3-7-4-30-17-55-38-77-64-13-16-25-33-36-51-24-42-40-94-45-158-2-20-3-41-3-61v-2Zm-1468 374c70 16 141 25 213 25h8c46 0 92-3 138-10 94-13 184-44 267-91 115-68 206-161 270-281 34-63 59-131 74-201 15-69 23-140 23-212v-8c0-52-4-103-11-154-14-92-42-180-86-261-64-120-155-214-270-281-1 0-1-1-1-1-61-35-126-61-194-77s-137-23-207-23h-8c-43 0-87 3-130 8-97 13-191 44-276 93-116 67-207 161-270 281-34 63-58 130-73 200s-22 141-22 212v9c0 52 3 103 11 155 13 91 41 179 84 260 63 120 154 213 270 281 60 34 124 59 190 76Zm219-226c76 0 153-18 230-54 10-5 19-10 29-15 46-27 87-62 121-104 15-18 29-38 42-58 2-3 4-7 7-11 21-37 37-77 48-119 14-56 22-120 22-191 0-133-26-240-77-320-52-81-116-139-192-174-46-21-94-37-144-45-29-5-57-8-86-8-61 0-120 11-177 31-19 7-37 14-55 22-12 5-23 11-35 18-49 28-91 66-126 111-11 14-21 29-31 45-2 3-4 6-6 10-21 36-36 75-47 115-15 57-22 122-22 195v4c0 41 3 83 9 124 11 75 33 140 66 193 25 40 54 76 89 108 22 20 46 38 72 52 10 6 21 12 31 17 44 20 89 36 136 45 32 6 64 9 96 9ZM449 1602v691h570c39 0 78-1 117-4 76-6 140-18 191-35 4-2 9-3 13-5 23-8 46-19 68-32 1 0 3-1 4-2 26-16 48-33 66-53 10-11 19-22 27-35 1-2 2-4 4-7 23-41 38-86 42-133 1-14 2-27 2-41v-4c0-35-5-70-15-103-6-20-14-38-24-56-24-41-58-75-98-98-2-1-3-2-4-3-36-20-74-36-114-47-77-22-170-33-280-33H449Zm6675 0v691h570c39 0 77-1 116-4 77-6 140-18 192-35 4-2 8-3 13-5 23-8 46-19 68-32 1 0 2-1 4-2 26-16 48-33 66-53 10-11 19-22 27-35 1-2 2-4 3-7 24-41 39-86 43-133 1-14 2-27 2-41v-4c0-35-5-70-15-103-6-20-14-38-24-56-24-41-58-75-99-98l-3-3c-36-20-74-36-114-47-77-22-171-33-280-33h-569ZM449 699v655h506c36 0 71-1 107-4 73-7 133-20 181-39 1-1 3-2 5-2 59-26 103-59 133-100 4-6 8-12 12-19 1-1 2-3 3-5 28-52 42-111 42-175v-4c0-40-8-79-24-115-18-39-46-73-83-102-2-2-5-4-8-6-60-44-140-71-239-81-26-2-53-3-79-3H449Zm6675 0v655h506c35 0 71-1 107-4 72-7 133-20 181-39 1-1 3-2 4-2 60-26 104-59 133-100 5-6 9-12 13-19 1-1 2-3 3-5 28-52 42-111 42-175v-4c0-40-8-79-24-115-18-39-46-73-83-102-3-2-5-4-8-6-61-44-140-71-239-81-26-2-53-3-80-3h-555Zm-4724 954h892c-2-37-7-73-15-109-14-56-35-104-65-145-27-36-58-69-95-96-13-10-26-19-41-28-11-6-23-12-35-18-35-16-73-28-111-36-28-6-57-9-85-9-48 0-96 8-141 23-19 7-38 14-56 22-12 6-23 12-34 18-45 26-85 60-117 100-6 8-13 16-18 24-47 65-73 149-79 254Zm1712 0h892c-2-37-7-73-16-109-13-56-35-104-64-145-27-36-59-69-95-96-13-10-27-19-41-28-11-6-23-12-35-18-36-16-73-28-111-36-28-6-57-9-86-9-48 0-95 8-140 23-19 7-38 14-56 22-12 6-23 12-35 18-44 26-84 60-116 100-7 8-13 16-19 24-46 65-72 149-78 254Z"/><path fill="none" stroke="#000" stroke-width="30" stroke-linejoin="miter" stroke-linecap="round" d="M1042 2550H310h0-1c-19 0-38-4-55-11h0c-4-2-8-4-13-7-10-6-19-13-28-21-26-27-39-59-39-97V581c0-38 13-71 39-98 27-27 59-41 97-41h714c148 0 272 22 372 67h0c18 8 35 16 52 26 28 17 56 36 81 58h0c42 36 78 79 105 127 42 72 64 152 66 235h0c1 11 1 22 1 34 0 124-30 225-90 300-61 76-129 130-206 165 73 22 141 55 204 99 64 45 115 100 153 166h0c24 43 40 89 49 136h0c5 33 8 67 8 100v3c0 117-25 220-77 309h0c-35 61-83 112-141 151h0l-39 24c-22 13-45 24-68 34-83 36-185 58-306 68h0c-48 4-95 6-142 6h-4 0ZM7717 2550h-732 0-2c-18 0-37-4-54-11h0c-4-2-9-4-13-7-10-6-19-13-28-21-26-27-39-59-39-97V581c0-38 13-71 39-98s59-41 97-41h714c147 0 271 22 372 67h0c17 8 35 16 51 26 29 17 57 36 82 58h0c42 36 77 79 105 127 41 72 64 152 66 235h0c1 11 1 22 1 34 0 124-30 225-91 300-60 76-129 130-205 165 72 22 140 55 204 99 63 45 114 100 153 166h0c24 43 40 89 48 136h0c6 33 9 67 9 100v3c0 117-26 220-77 309h0c-35 61-84 112-142 151h0c-12 8-25 16-38 24-22 13-45 24-68 34-83 36-185 58-307 68h0c-47 4-94 6-142 6h-3ZM3425 1876H2400c16 135 68 243 154 325h0c23 21 48 39 75 55 28 16 58 29 90 39 42 13 88 21 139 25h0c23 2 47 3 70 3h4c31 0 62-1 93-3 32-3 61-7 88-12h0c15-3 31-6 46-10 63-17 122-40 179-68h0c12-7 26-10 40-12h14s0 0 0 0c32 0 60 11 85 33h0c8 7 16 16 21 26 10 16 15 35 15 53h0v5s0 0 0 0c0 25-8 46-23 65s-34 35-56 47h0c-64 37-131 67-201 90h0c-5 2-10 4-15 5h0c-29 9-59 17-89 22-63 11-138 16-223 16h0-1s0 0 0 0c-246 0-438-70-576-210-130-132-199-314-207-547h0v-43s0 0 0 0c0-137 25-266 75-388 51-122 129-221 236-298 101-72 229-110 384-114h33c60 0 120 6 178 19h0c62 13 122 36 178 68 11 6 21 13 32 20 107 71 188 164 243 279h0c54 113 83 237 83 362h0v12c0 39-12 71-37 97h0c-9 9-18 16-28 22-14 8-29 13-45 15h0c-10 2-19 2-28 2h-1 0ZM5137 1876H4112c16 135 67 243 154 325h0c23 21 48 39 75 55 28 16 58 29 90 39 42 13 88 21 139 25h0c23 2 46 3 70 3h4c31 0 62-1 93-3 31-3 61-7 88-12h0c15-3 31-6 46-10 62-17 122-40 178-68h0c13-7 27-10 41-12h14s0 0 0 0c32 0 60 11 84 33h0c9 7 16 16 22 26 9 16 14 35 15 53h0v5s0 0 0 0c0 25-8 46-23 65s-34 35-56 47h0c-64 37-132 67-202 90h0c-4 2-9 4-14 5h0c-29 9-59 17-90 22-63 11-137 16-223 16h0s0 0 0 0 0 0 0 0c-246 0-438-70-576-210-131-132-199-314-207-547h0v-43s0 0 0 0c0-137 25-266 75-388 51-122 129-221 236-298 101-72 229-110 384-114h27s0 0 0 0h6c60 0 119 6 178 19h0c62 13 122 36 177 68 11 6 22 13 33 20 106 71 188 164 243 279h0c54 113 82 237 83 362h0v12c0 39-12 71-38 97h0c-8 9-17 16-27 22-14 8-30 13-46 15h0c-9 2-18 2-27 2h-1 0ZM5730 2181v-936h-215 0-1c-7 0-15-1-22-3-17-4-27-16-32-33h0c-2-6-2-13-2-20v-1h0s0 0 0 0c0-11 2-21 8-30 3-5 6-10 10-14h0c3-3 6-5 9-7l411-402h0l4-4c4-3 9-8 16-13h0c2-1 4-2 6-4 7-4 16-6 25-6 0 0 0 0 0 0h0s0 0 0 0h1s0 0 0 0c10 0 19 2 27 7 4 2 8 5 12 9h0c0 1 1 1 1 2 11 12 17 26 17 42v242h343c14 0 27 2 40 6h0c7 2 14 5 20 9 9 5 17 11 23 18h0c7 7 14 15 18 23 9 16 14 33 15 50h0c1 4 1 8 1 11 0 0 0 0 0 0 0 33-11 60-34 84h0c-7 7-15 14-25 19-16 10-35 15-54 15h0-347v912h0v2c0 14 1 28 3 42 3 32 12 58 25 76h0c2 3 3 5 5 7h0c10 12 23 23 36 31h0c1 0 1 0 2 1 13 7 27 12 42 15h0c13 2 26 4 39 5 12 1 24 2 34 2h11c48 0 84-4 107-13s48-14 74-14h0s0 0 0 0c19 0 38 5 55 15 6 4 13 8 18 13h0c1 1 2 2 3 2h0c7 7 14 16 19 25 9 14 13 31 14 48h0v6h0v2c0 19-5 38-14 54-7 12-16 23-27 31h0c-7 6-14 10-22 15-2 1-4 2-7 4h0c-32 14-66 26-101 35h0c-5 1-10 3-15 4h0c-28 7-57 11-86 13h0c-16 1-32 2-48 2h-1 0c-15 0-31-1-47-2-25-1-52-4-81-9h0c-44-6-87-19-128-39h0c-6-3-11-6-17-9h0c-3-1-5-3-7-4-30-17-55-38-77-64h0c-13-16-25-33-36-51-24-42-40-94-46-158h0c-1-20-2-41-2-61v-2ZM10820 2181v-936h-215 0-1c-7 0-15-1-22-3-17-4-27-16-32-33h0c-2-6-2-13-2-20v-1h0s0 0 0 0c0-11 2-21 8-30 3-5 6-10 10-14h0c3-3 6-5 9-7l411-402h0l4-4c4-3 9-8 16-13h0c2-1 4-2 6-4 7-4 16-6 25-6 0 0 0 0 0 0h0s0 0 0 0h1s0 0 0 0c10 0 19 2 27 7 4 2 8 5 12 9h0c0 1 1 1 1 2 12 12 17 26 17 42v242h343c14 0 27 2 40 6h0c7 2 14 5 20 9 9 5 17 11 23 18h0c7 7 14 15 18 23 9 16 14 33 15 50h0c1 4 1 8 1 11 0 0 0 0 0 0 0 33-11 60-34 84h0c-7 7-15 14-25 19-16 10-35 15-54 15h0-347v912h0v2c0 14 1 28 3 42 3 32 12 58 25 76h0c2 3 3 5 5 7h0c11 12 23 23 36 31h0c1 0 1 0 2 1 13 7 27 12 42 15h0c13 2 26 4 39 5 12 1 24 2 34 2h11c48 0 84-4 107-13s48-14 74-14h0s0 0 0 0c19 0 38 5 55 15 6 4 13 8 18 13h0c1 1 2 2 3 2h0c8 7 14 16 19 25 9 14 13 31 14 48h0v6h0v2c0 19-5 38-14 54-7 12-16 23-27 31h0c-7 6-14 10-22 15-2 1-4 2-7 4h0c-32 14-66 26-101 35h0c-5 1-10 3-15 4h0c-28 7-57 11-86 13h0c-16 1-32 2-48 2h-1 0c-15 0-31-1-47-2-25-1-52-4-81-9h0c-44-6-87-19-128-39h0c-6-3-11-6-17-9h0c-3-1-5-3-7-4-30-17-55-38-77-64h0c-13-16-25-33-36-51-24-42-40-94-45-158h0c-2-20-3-41-3-61v-2h0ZM9352 2555h0c70 16 141 25 213 25h8c46 0 92-3 138-10h0c94-13 184-44 267-91 115-68 206-161 270-281h0c34-63 59-131 74-201h0c15-69 23-140 23-212v-5h0v-3c0-52-4-103-11-154h0c-14-92-42-180-86-261-64-120-155-214-270-281h0c-1 0-1-1-1-1-61-35-126-61-194-77h0c-68-16-137-23-207-23h-5 0-3c-43 0-87 3-130 8h0c-97 13-191 44-276 93-116 67-207 161-270 281h0c-34 63-58 130-73 200h0c-15 70-22 141-22 212v6h0v3c0 52 3 103 11 155h0c13 91 41 179 84 260 63 120 154 213 270 281h0c60 34 124 59 190 76Z"/><path fill="none" stroke="#000" stroke-width="30" stroke-linejoin="miter" stroke-linecap="round" d="M9571 2329c76 0 153-18 230-54h0c10-5 19-10 29-15 46-27 87-62 121-104h0c15-18 29-38 42-58h0c2-3 4-7 7-11 21-37 37-77 48-119 14-56 22-120 22-191 0-133-26-240-77-320-52-81-116-139-192-174h0c-46-21-94-37-144-45h0c-29-5-57-8-86-8h0c-61 0-120 11-177 31h0c-19 7-37 14-55 22h0c-12 5-23 11-35 18-49 28-91 66-126 111h0c-11 14-21 29-31 45h0c-2 3-4 6-6 10-21 36-36 75-47 115-15 57-22 122-22 195h0v4c0 41 3 83 9 124 11 75 33 140 66 193h0c25 40 54 76 89 108h0c22 20 46 38 72 52 10 6 21 12 31 17h0c44 20 89 36 136 45h0c32 6 64 9 96 9ZM449 1602v691h570c39 0 78-1 117-4 76-6 140-18 191-35h0c4-2 9-3 13-5h0c23-8 46-19 68-32 1 0 3-1 4-2 26-16 48-33 66-53h0c10-11 19-22 27-35h0c1-2 2-4 4-7 23-41 38-86 42-133h0c1-14 2-27 2-41 0 0 0 0 0 0h0v-4c0-35-5-70-15-103h0c-6-20-14-38-24-56-24-41-58-75-98-98 0 0 0 0 0 0h0c-2-1-3-2-4-3-36-20-74-36-114-47-77-22-170-33-280-33H449ZM7124 1602v691h570c39 0 77-1 116-4 77-6 140-18 192-35h0c4-2 8-3 13-5h0c23-8 46-19 68-32 1 0 2-1 4-2 26-16 48-33 66-53h0c10-11 19-22 27-35h0c1-2 2-4 3-7 24-41 39-86 43-133h0c1-14 2-27 2-41 0 0 0 0 0 0h0v-4c0-35-5-70-15-103h0c-6-20-14-38-24-56-24-41-58-75-99-98 0 0 0 0 0 0h0l-3-3c-36-20-74-36-114-47-77-22-171-33-280-33h-569ZM449 699v655h506c36 0 71-1 107-4 73-7 133-20 181-39h0c1-1 3-2 5-2 59-26 103-59 133-100h0c4-6 8-12 12-19 1-1 2-3 3-5 28-52 42-111 42-175h0v-4c0-40-8-79-24-115-18-39-46-73-83-102h0c-2-2-5-4-8-6-60-44-140-71-239-81h0c-26-2-53-3-79-3H449ZM7124 699v655h506c35 0 71-1 107-4 72-7 133-20 181-39h0c1-1 3-2 4-2 60-26 104-59 133-100h0c5-6 9-12 13-19 1-1 2-3 3-5 28-52 42-111 42-175h0v-4c0-40-8-79-24-115-18-39-46-73-83-102h0c-3-2-5-4-8-6-61-44-140-71-239-81h0c-26-2-53-3-80-3h-555ZM2400 1653h892c-2-37-7-73-15-109-14-56-35-104-65-145h0c-27-36-58-69-95-96h0c-13-10-26-19-41-28-11-6-23-12-35-18h0c-35-16-73-28-111-36h0c-28-6-57-9-85-9h0c-48 0-96 8-141 23h0c-19 7-38 14-56 22h0c-12 6-23 12-34 18-45 26-85 60-117 100h0c-6 8-13 16-18 24-47 65-73 149-79 254ZM4112 1653h892c-2-37-7-73-16-109-13-56-35-104-64-145h0c-27-36-59-69-95-96h0c-13-10-27-19-41-28-11-6-23-12-35-18h0c-36-16-73-28-111-36h0c-28-6-57-9-86-9h0c-48 0-95 8-140 23h0c-19 7-38 14-56 22h0c-12 6-23 12-35 18-44 26-84 60-116 100h0c-7 8-13 16-19 24-46 65-72 149-78 254Z"/></g></g><g class="Graphic"><path class="BoundingBox" fill="none" d="M10818-1100h5083v5081h-5083z"/><path fill="#C1DC3C" d="M14186 1271c-238 9-368-87-432-162-50-59-50-123-14-177 52-80 165-184 403-193 161-6 269 21 343 60 164 85 167 320 3 406-67 35-164 61-303 66Z"/><path fill="none" stroke="#FFF" stroke-width="250" stroke-linecap="round" d="M14186 1271c-238 9-368-87-432-162-50-59-50-123-14-177 52-80 165-184 403-193 161-6 269 21 343 60 164 85 167 320 3 406-67 35-164 61-303 66Z"/><path fill="#C1DC3C" d="M13528 613c-9 238 87 368 162 432 59 50 123 50 178 14 79-52 184-165 192-403 6-160-21-269-59-343-86-164-321-167-407-3-35 67-61 164-66 303Z"/><path fill="none" stroke="#FFF" stroke-width="250" stroke-linecap="round" d="M13528 613c-9 238 87 368 162 432 59 50 123 50 178 14 79-52 184-165 192-403 6-160-21-269-59-343-86-164-321-167-407-3-35 67-61 164-66 303Z"/><path fill="#FF5E8A" d="M13722 2194c-400 400-1375 258-1375 258s-143-975 257-1375c309-308 809-308 1117 1 309 308 309 808 1 1116Z"/><path fill="none" stroke="#FFF" stroke-width="250" stroke-linecap="round" d="M13722 2194c-400 400-1375 258-1375 258s-143-975 257-1375c309-308 809-308 1117 1 309 308 309 808 1 1116Z"/><path fill="#C1DC3C" d="M14255 922c-168 170-327 189-426 179-76-8-120-55-132-119-17-94-7-247 160-418 113-114 210-169 290-192 178-51 342 119 282 293-25 72-77 158-174 257Z"/><path fill="none" stroke="#FFF" stroke-width="250" stroke-linecap="round" d="M14255 922c-168 170-327 189-426 179-76-8-120-55-132-119-17-94-7-247 160-418 113-114 210-169 290-192 178-51 342 119 282 293-25 72-77 158-174 257Z"/><path fill="#570029" d="M13943 1300c67 22 148 34 245 31 134-5 245-30 329-74 96-50 153-145 153-254s-60-207-156-257c-15-8-30-14-46-21 7-13 12-27 17-40 35-103 11-212-64-291-75-78-186-109-290-79-19 5-37 12-56 20-6-17-14-34-22-49-50-97-148-157-257-157s-204 57-254 154c-44 84-69 194-74 328-3 97 9 178 31 245-310-133-684-73-937 179-176 177-276 472-296 876-14 296 21 539 22 549 2 13 8 25 17 34 9 8 20 14 33 16 11 2 253 37 549 22 405-19 700-119 877-296 253-252 312-626 179-936Zm516-449c58 30 92 87 92 152 0 64-33 120-89 149-69 36-162 56-278 60-117 4-204-19-268-51 107-9 243-57 381-197 44-45 81-90 112-134 18 6 34 13 50 21Zm-127-378 3 3c44 46 58 110 37 170-25 73-79 151-160 234-145 148-281 171-371 162l385-384c23-23 23-61 0-84s-61-23-84 0l-388 387c-13-84 5-211 146-355 92-93 180-153 264-177 61-17 123-1 168 44Zm-745 142c4-116 24-209 60-277 29-57 85-90 149-90 65 0 122 35 152 92 8 16 15 34 22 52-52 35-103 78-155 131-127 129-172 251-181 351-31-64-51-148-47-259Zm-1187 1783c-11-98-32-345-6-607l324 323c23 23 61 23 84 0s23-61 0-84l-388-387c35-201 104-396 232-524 46-45 96-84 150-115l231 231c23 23 61 23 84 0s23-61 0-84l-201-200c259-95 562-39 769 169 285 285 285 748 1 1032-74 74-169 128-275 167l-422-421c-23-23-61-23-84 0s-23 61 0 84l377 377c-343 87-744 54-876 39Z"/><path fill="none" stroke="#FFF" stroke-width="250" stroke-linecap="round" d="M13943 1300c67 22 148 34 245 31 134-5 245-30 329-74 96-50 153-145 153-254s-60-207-156-257c-15-8-30-14-46-21 7-13 12-27 17-40 35-103 11-212-64-291-75-78-186-109-290-79-19 5-37 12-56 20-6-17-14-34-22-49-50-97-148-157-257-157s-204 57-254 154c-44 84-69 194-74 328-3 97 9 178 31 245-310-133-684-73-937 179-176 177-276 472-296 876-14 296 21 539 22 549 2 13 8 25 17 34 9 8 20 14 33 16 11 2 253 37 549 22 405-19 700-119 877-296 253-252 312-626 179-936Z"/><path fill="none" stroke="#FFF" stroke-width="250" stroke-linecap="round" d="M14459 851c58 30 92 87 92 152 0 64-33 120-89 149-69 36-162 56-278 60-117 4-204-19-268-51 107-9 243-57 381-197 44-45 81-90 112-134 18 6 34 13 50 21ZM14332 473l3 3c44 46 58 110 37 170-25 73-79 151-160 234-145 148-281 171-371 162l385-384c23-23 23-61 0-84h0c-23-23-61-23-84 0l-388 387c-13-84 5-211 146-355 92-93 180-153 264-177 61-17 123-1 168 44ZM13587 615c4-116 24-209 60-277 29-57 85-90 149-90 65 0 122 35 152 92 8 16 15 34 22 52-52 35-103 78-155 131-127 129-172 251-181 351-31-64-51-148-47-259ZM12400 2398c-11-98-32-345-6-607l324 323c23 23 61 23 84 0s23-61 0-84l-388-387c35-201 104-396 232-524 46-45 96-84 150-115l231 231c23 23 61 23 84 0s23-61 0-84l-201-200c259-95 562-39 769 169 285 285 285 748 1 1032-74 74-169 128-275 167l-422-421c-23-23-61-23-84 0s-23 61 0 84l377 377c-343 87-744 54-876 39Z"/><path fill="#570029" d="m13289 1329-25-25c-23-23-61-23-84 0s-23 61 0 84l25 25c23 23 60 23 84 0 23-24 23-61 0-84Z"/><path fill="none" stroke="#FFF" stroke-width="250" stroke-linecap="round" d="m13289 1329-25-25c-23-23-61-23-84 0s-23 61 0 84l25 25c23 23 60 23 84 0 23-24 23-61 0-84Z"/><path fill="#C1DC3C" d="M14186 1271c-238 9-368-87-432-162-50-59-50-123-14-177 52-80 165-184 403-193 161-6 269 21 343 60 164 85 167 320 3 406-67 35-164 61-303 66Z"/><path fill="none" d="M14186 1271c-238 9-368-87-432-162-50-59-50-123-14-177 52-80 165-184 403-193 161-6 269 21 343 60 164 85 167 320 3 406-67 35-164 61-303 66Z"/><path fill="#C1DC3C" d="M13528 613c-9 238 87 368 162 432 59 50 123 50 178 14 79-52 184-165 192-403 6-160-21-269-59-343-86-164-321-167-407-3-35 67-61 164-66 303Z"/><path fill="none" d="M13528 613c-9 238 87 368 162 432 59 50 123 50 178 14 79-52 184-165 192-403 6-160-21-269-59-343-86-164-321-167-407-3-35 67-61 164-66 303Z"/><path fill="#FF5E8A" d="M13722 2194c-400 400-1375 258-1375 258s-143-975 257-1375c309-308 809-308 1117 1 309 308 309 808 1 1116Z"/><path fill="none" d="M13722 2194c-400 400-1375 258-1375 258s-143-975 257-1375c309-308 809-308 1117 1 309 308 309 808 1 1116Z"/><path fill="#C1DC3C" d="M14255 922c-168 170-327 189-426 179-76-8-120-55-132-119-17-94-7-247 160-418 113-114 210-169 290-192 178-51 342 119 282 293-25 72-77 158-174 257Z"/><path fill="none" d="M14255 922c-168 170-327 189-426 179-76-8-120-55-132-119-17-94-7-247 160-418 113-114 210-169 290-192 178-51 342 119 282 293-25 72-77 158-174 257Z"/><path fill="#570029" d="M13943 1300c67 22 148 34 245 31 134-5 245-30 329-74 96-50 153-145 153-254s-60-207-156-257c-15-8-30-14-46-21 7-13 12-27 17-40 35-103 11-212-64-291-75-78-186-109-290-79-19 5-37 12-56 20-6-17-14-34-22-49-50-97-148-157-257-157s-204 57-254 154c-44 84-69 194-74 328-3 97 9 178 31 245-310-133-684-73-937 179-176 177-276 472-296 876-14 296 21 539 22 549 2 13 8 25 17 34 9 8 20 14 33 16 11 2 253 37 549 22 405-19 700-119 877-296 253-252 312-626 179-936Zm516-449c58 30 92 87 92 152 0 64-33 120-89 149-69 36-162 56-278 60-117 4-204-19-268-51 107-9 243-57 381-197 44-45 81-90 112-134 18 6 34 13 50 21Zm-127-378 3 3c44 46 58 110 37 170-25 73-79 151-160 234-145 148-281 171-371 162l385-384c23-23 23-61 0-84s-61-23-84 0l-388 387c-13-84 5-211 146-355 92-93 180-153 264-177 61-17 123-1 168 44Zm-745 142c4-116 24-209 60-277 29-57 85-90 149-90 65 0 122 35 152 92 8 16 15 34 22 52-52 35-103 78-155 131-127 129-172 251-181 351-31-64-51-148-47-259Zm-1187 1783c-11-98-32-345-6-607l324 323c23 23 61 23 84 0s23-61 0-84l-388-387c35-201 104-396 232-524 46-45 96-84 150-115l231 231c23 23 61 23 84 0s23-61 0-84l-201-200c259-95 562-39 769 169 285 285 285 748 1 1032-74 74-169 128-275 167l-422-421c-23-23-61-23-84 0s-23 61 0 84l377 377c-343 87-744 54-876 39Z"/><path fill="none" d="M13943 1300c67 22 148 34 245 31 134-5 245-30 329-74 96-50 153-145 153-254s-60-207-156-257c-15-8-30-14-46-21 7-13 12-27 17-40 35-103 11-212-64-291-75-78-186-109-290-79-19 5-37 12-56 20-6-17-14-34-22-49-50-97-148-157-257-157s-204 57-254 154c-44 84-69 194-74 328-3 97 9 178 31 245-310-133-684-73-937 179-176 177-276 472-296 876-14 296 21 539 22 549 2 13 8 25 17 34 9 8 20 14 33 16 11 2 253 37 549 22 405-19 700-119 877-296 253-252 312-626 179-936Z"/><path fill="none" d="M14459 851c58 30 92 87 92 152 0 64-33 120-89 149-69 36-162 56-278 60-117 4-204-19-268-51 107-9 243-57 381-197 44-45 81-90 112-134 18 6 34 13 50 21ZM14332 473l3 3c44 46 58 110 37 170-25 73-79 151-160 234-145 148-281 171-371 162l385-384c23-23 23-61 0-84s-61-23-84 0l-388 387c-13-84 5-211 146-355 92-93 180-153 264-177 61-17 123-1 168 44ZM13587 615c4-116 24-209 60-277 29-57 85-90 149-90 65 0 122 35 152 92 8 16 15 34 22 52-52 35-103 78-155 131-127 129-172 251-181 351-31-64-51-148-47-259ZM12400 2398c-11-98-32-345-6-607l324 323c23 23 61 23 84 0s23-61 0-84l-388-387c35-201 104-396 232-524 46-45 96-84 150-115l231 231c23 23 61 23 84 0s23-61 0-84l-201-200c259-95 562-39 769 169 285 285 285 748 1 1032-74 74-169 128-275 167l-422-421c-23-23-61-23-84 0s-23 61 0 84l377 377c-343 87-744 54-876 39Z"/><path fill="#570029" d="m13289 1329-25-25c-23-23-61-23-84 0s-23 61 0 84l25 25c23 23 60 23 84 0 23-24 23-61 0-84Z"/><path fill="none" d="m13289 1329-25-25c-23-23-61-23-84 0s-23 61 0 84l25 25c23 23 60 23 84 0 23-24 23-61 0-84Z"/></g></g></g></g></svg>